<svg width="24" height="24" viewBox="0 0 24 24" fill="none" xmlns="http://www.w3.org/2000/svg">
<path d="M2.00006 8.56907C2.00006 7.37289 2.48244 6.63982 3.48069 6.08428L7.58993 3.79744C9.74316 2.59915 10.8198 2 12.0001 2C13.1804 2 14.257 2.59915 16.4102 3.79744L20.5195 6.08428C21.5177 6.63982 22.0001 7.3729 22.0001 8.56907C22.0001 8.89343 22.0001 9.05561 21.9647 9.18894C21.7786 9.88945 21.1438 10 20.5308 10H3.46934C2.85633 10 2.22158 9.88944 2.03548 9.18894C2.00006 9.05561 2.00006 8.89343 2.00006 8.56907Z" stroke="#232323" stroke-width="1.32308"/>
<path d="M11.9959 7H12.0049" stroke="#232323" stroke-width="1.7641" stroke-linecap="round" stroke-linejoin="round"/>
<path d="M4.00006 10V18.5M8.00006 10V18.5" stroke="#232323" stroke-width="1.32308"/>
<path d="M16.0001 10V18.5M20.0001 10V18.5" stroke="#232323" stroke-width="1.32308"/>
<path d="M19.0001 18.5H5.00006C3.34321 18.5 2.00006 19.8431 2.00006 21.5C2.00006 21.7761 2.22392 22 2.50006 22H21.5001C21.7762 22 22.0001 21.7761 22.0001 21.5C22.0001 19.8431 20.657 18.5 19.0001 18.5Z" stroke="#232323" stroke-width="1.32308"/>
</svg>
