<svg width="24" height="24" viewBox="0 0 24 24" fill="none" xmlns="http://www.w3.org/2000/svg">
<path d="M12.5 20.0039H10.5C6.74139 20.0039 4.8621 20.0039 3.60743 19.013C3.40675 18.8545 3.22116 18.6799 3.05277 18.491C1.99997 17.3101 1.99997 15.5414 1.99997 12.0039C1.99997 8.46643 1.99997 6.69768 3.05277 5.51681C3.22116 5.32794 3.40675 5.15326 3.60743 4.99478C4.8621 4.00391 6.74139 4.00391 10.5 4.00391H13.5C17.2586 4.00391 19.1379 4.00391 20.3925 4.99478C20.5932 5.15326 20.7788 5.32794 20.9472 5.51681C21.8394 6.51749 21.9755 7.94033 21.9963 10.5039" stroke="#232323" stroke-width="1.32308" stroke-linecap="round" stroke-linejoin="round"/>
<path d="M18.5 20.0039V13.0039M15 16.5039H22" stroke="#232323" stroke-width="1.32308" stroke-linecap="round"/>
<path d="M1.99997 9.00391H22" stroke="#232323" stroke-width="1.32308" stroke-linejoin="round"/>
</svg>
