<svg width="24" height="25" viewBox="0 0 24 25" fill="none" xmlns="http://www.w3.org/2000/svg">
<path d="M12 17.1758V15.1758" stroke="#A0A0A0" stroke-width="1.5" stroke-linecap="round"/>
<path d="M4.26781 19.5205C4.49269 21.1908 5.87613 22.4993 7.55966 22.5767C8.97627 22.6418 10.4153 22.6758 12 22.6758C13.5847 22.6758 15.0237 22.6418 16.4403 22.5767C18.1239 22.4993 19.5073 21.1908 19.7322 19.5205C19.8789 18.4305 20 17.3134 20 16.1758C20 15.0382 19.8789 13.9211 19.7322 12.8311C19.5073 11.1608 18.1239 9.85227 16.4403 9.77487C15.0237 9.70975 13.5847 9.67578 12 9.67578C10.4153 9.67578 8.97627 9.70975 7.55966 9.77487C5.87613 9.85227 4.49269 11.1608 4.26781 12.8311C4.12105 13.9211 4 15.0382 4 16.1758C4 17.3134 4.12105 18.4305 4.26781 19.5205Z" stroke="#A0A0A0" stroke-width="1.5"/>
<path d="M7.5 9.67578V7.17578C7.5 4.6905 9.51472 2.67578 12 2.67578C14.4853 2.67578 16.5 4.6905 16.5 7.17578V9.67578" stroke="#A0A0A0" stroke-width="1.5" stroke-linecap="round" stroke-linejoin="round"/>
</svg>
