<svg width="25" height="25" viewBox="0 0 25 25" fill="none" xmlns="http://www.w3.org/2000/svg">
<path d="M2.38428 12.5C2.38428 8.72876 2.38428 6.84315 3.55585 5.67157C4.72742 4.5 6.61304 4.5 10.3843 4.5H14.3843C18.1555 4.5 20.0411 4.5 21.2127 5.67157C22.3843 6.84315 22.3843 8.72876 22.3843 12.5C22.3843 16.2712 22.3843 18.1569 21.2127 19.3284C20.0411 20.5 18.1555 20.5 14.3843 20.5H10.3843C6.61304 20.5 4.72742 20.5 3.55585 19.3284C2.38428 18.1569 2.38428 16.2712 2.38428 12.5Z" stroke="#232323" stroke-width="1.5"/>
<path d="M6.38428 8.5L8.54317 10.2991C10.3798 11.8296 11.2981 12.5949 12.3843 12.5949C13.4704 12.5949 14.3887 11.8296 16.2254 10.2991L18.3843 8.5" stroke="#232323" stroke-width="1.5" stroke-linecap="round"/>
</svg>
