<svg width="24" height="24" viewBox="0 0 24 24" fill="none" xmlns="http://www.w3.org/2000/svg">
<path d="M7.24471 3.74993C9.45072 2.47629 10.5537 1.83947 11.7599 1.77959C11.9251 1.77139 12.0906 1.77139 12.2558 1.77959C13.462 1.83947 14.565 2.47629 16.771 3.74993C18.977 5.02357 20.08 5.6604 20.735 6.67504C20.8247 6.814 20.9074 6.95732 20.9829 7.10448C21.5341 8.17901 21.5341 9.45266 21.5341 11.9999C21.5341 14.5472 21.5341 15.8209 20.9829 16.8954C20.9074 17.0425 20.8247 17.1859 20.735 17.3248C20.08 18.3395 18.977 18.9763 16.771 20.2499C14.565 21.5236 13.462 22.1604 12.2558 22.2203C12.0906 22.2285 11.9251 22.2285 11.7599 22.2203C10.5537 22.1604 9.45072 21.5236 7.24471 20.2499C5.0387 18.9763 3.93569 18.3395 3.28074 17.3248C3.19104 17.1859 3.10829 17.0425 3.0328 16.8954C2.48157 15.8209 2.48157 14.5472 2.48157 11.9999C2.48157 9.45266 2.48157 8.17901 3.0328 7.10448C3.10829 6.95732 3.19104 6.814 3.28074 6.67504C3.93569 5.6604 5.0387 5.02357 7.24471 3.74993Z" stroke="#9E9E9E" stroke-width="1.7"/>
<path d="M9.66191 11.0416C9.86497 10.5485 10.2566 10.1568 10.7498 9.95378L13.4266 8.85153C14.2486 8.51309 15.0705 9.33503 14.7321 10.157L13.6298 12.8338C13.4268 13.327 13.0351 13.7186 12.542 13.9217L9.86509 15.0239C9.04315 15.3624 8.22122 14.5404 8.55966 13.7185L9.66191 11.0416Z" stroke="#9E9E9E" stroke-width="1.7"/>
</svg>
