<svg width="56" height="56" viewBox="0 0 56 56" fill="none" xmlns="http://www.w3.org/2000/svg">
<rect width="56" height="56" rx="28" transform="matrix(1 0 0 -1 0.0078125 56)" fill="white" fill-opacity="0.7"/>
<rect x="0.5" y="-0.5" width="55" height="55" rx="27.5" transform="matrix(1 0 0 -1 0.0078125 55)" stroke="black" stroke-opacity="0.1"/>
<path d="M19.0078 23H22.0078" stroke="#232323" stroke-width="1.5" stroke-linecap="round" stroke-linejoin="round"/>
<path d="M19.0078 33H25.0078" stroke="#232323" stroke-width="1.5" stroke-linecap="round" stroke-linejoin="round"/>
<path d="M34.0078 33H37.0078" stroke="#232323" stroke-width="1.5" stroke-linecap="round" stroke-linejoin="round"/>
<path d="M31.0078 23H37.0078" stroke="#232323" stroke-width="1.5" stroke-linecap="round" stroke-linejoin="round"/>
<path d="M22.0078 23C22.0078 22.0681 22.0078 21.6022 22.1601 21.2346C22.363 20.7446 22.7524 20.3552 23.2424 20.1522C23.61 20 24.0759 20 25.0078 20C25.9397 20 26.4056 20 26.7732 20.1522C27.2632 20.3552 27.6526 20.7446 27.8556 21.2346C28.0078 21.6022 28.0078 22.0681 28.0078 23C28.0078 23.9319 28.0078 24.3978 27.8556 24.7654C27.6526 25.2554 27.2632 25.6448 26.7732 25.8478C26.4056 26 25.9397 26 25.0078 26C24.0759 26 23.61 26 23.2424 25.8478C22.7524 25.6448 22.363 25.2554 22.1601 24.7654C22.0078 24.3978 22.0078 23.9319 22.0078 23Z" stroke="#232323" stroke-width="1.5"/>
<path d="M28.0078 33C28.0078 32.0681 28.0078 31.6022 28.16 31.2346C28.363 30.7446 28.7524 30.3552 29.2424 30.1522C29.61 30 30.0759 30 31.0078 30C31.9397 30 32.4056 30 32.7732 30.1522C33.2632 30.3552 33.6526 30.7446 33.8556 31.2346C34.0078 31.6022 34.0078 32.0681 34.0078 33C34.0078 33.9319 34.0078 34.3978 33.8556 34.7654C33.6526 35.2554 33.2632 35.6448 32.7732 35.8478C32.4056 36 31.9397 36 31.0078 36C30.0759 36 29.61 36 29.2424 35.8478C28.7524 35.6448 28.363 35.2554 28.16 34.7654C28.0078 34.3978 28.0078 33.9319 28.0078 33Z" stroke="#232323" stroke-width="1.5"/>
</svg>
