<svg width="25" height="24" viewBox="0 0 25 24" fill="none" xmlns="http://www.w3.org/2000/svg">
<path d="M20.1046 21.1281C18.0234 22.8859 15.3234 24.0016 12.3843 24.0016C8.01089 24.0016 4.17178 21.5922 2.09058 18.0766L2.86973 14.4849L6.32339 13.8438C7.12495 16.4312 9.54366 18.3297 12.3843 18.3297C13.7624 18.3297 15.0421 17.8938 16.0968 17.1203L19.4156 17.6266L20.1046 21.1281Z" fill="#59C36A"/>
<path d="M20.1046 21.125L19.4155 17.6234L16.0968 17.1172C15.0421 17.8906 13.7624 18.3266 12.3843 18.3266V23.9984C15.3234 23.9984 18.0233 22.8828 20.1046 21.125Z" fill="#00A66C"/>
<path d="M6.05615 12.0008C6.05615 12.6476 6.15459 13.2664 6.32334 13.843L2.09053 18.0758C1.03584 16.3039 0.384277 14.2226 0.384277 12.0008C0.384277 9.77886 1.03584 7.69766 2.09053 5.92578L5.4877 6.51045L6.32334 10.1586C6.15459 10.7351 6.05615 11.3539 6.05615 12.0008Z" fill="#FFDA2D"/>
<path d="M24.3843 12C24.3843 15.6562 22.6921 18.9328 20.1046 21.1266L16.0968 17.1188C16.9124 16.5281 17.6015 15.7406 18.0515 14.8125H12.3843C11.9905 14.8125 11.6812 14.5031 11.6812 14.1094V9.89063C11.6812 9.49683 11.9905 9.1875 12.3843 9.1875H23.4843C23.8218 9.1875 24.1171 9.42652 24.1733 9.76402C24.314 10.4953 24.3843 11.2546 24.3843 12V12Z" fill="#4086F4"/>
<path d="M18.0515 14.8125C17.6015 15.7406 16.9124 16.5281 16.0968 17.1188L20.1046 21.1266C22.6921 18.9328 24.3843 15.6563 24.3843 12C24.3843 11.2546 24.314 10.4953 24.1733 9.76402C24.1171 9.42652 23.8217 9.1875 23.4842 9.1875H12.3843V14.8125H18.0515Z" fill="#4175DF"/>
<path d="M20.3015 3.35152C20.3156 3.54839 20.2312 3.73125 20.1046 3.87183L17.0953 6.86714C16.8562 7.12027 16.4625 7.14839 16.1812 6.93745C15.0702 6.10781 13.7624 5.67188 12.3843 5.67188C9.54365 5.67188 7.12495 7.57027 6.32339 10.1578L2.09058 5.925C4.17178 2.40938 8.01089 0 12.3843 0C15.1828 0 17.9109 1.03125 20.0484 2.8312C20.2031 2.95781 20.2875 3.15464 20.3015 3.35152V3.35152Z" fill="#FF641A"/>
<path d="M16.1812 6.93745C16.4624 7.14844 16.8561 7.12027 17.0952 6.86714L20.1046 3.87183C20.2312 3.73125 20.3155 3.54844 20.3014 3.35152C20.2873 3.15459 20.203 2.95781 20.0483 2.8312C17.9108 1.03125 15.1827 0 12.3843 0V5.67188C13.7624 5.67188 15.0702 6.10781 16.1812 6.93745Z" fill="#F03800"/>
</svg>
