<svg width="24" height="24" viewBox="0 0 24 24" fill="none" xmlns="http://www.w3.org/2000/svg">
<g clip-path="url(#clip0_636_13937)">
<path d="M2.77477 15.8197L3.48513 15.5888L2.77477 15.8197ZM1.66426 9.65157L2.38262 9.85618L2.38262 9.85618L1.66426 9.65157ZM6.30148 4.96556L5.86245 4.36128L5.86245 4.36128L6.30148 4.96556ZM1.77755 9.30291L2.47898 9.55961L1.77755 9.30291ZM5.79845 21.678L5.38187 22.2979L5.38187 22.2979L5.79845 21.678ZM5.50186 21.4625L5.04098 22.0503L5.04098 22.0503L5.50186 21.4625ZM21.2409 15.8197L20.5305 15.5888L21.2409 15.8197ZM18.5138 21.4625L18.9747 22.0503L18.9747 22.0503L18.5138 21.4625ZM18.2172 21.678L18.6338 22.2979L18.6338 22.2979L18.2172 21.678ZM17.7142 4.96556L18.1532 4.36128L18.1532 4.36128L17.7142 4.96556ZM22.2381 9.30291L21.5367 9.55961L22.2381 9.30291ZM22.3514 9.65157L21.633 9.85618L22.3514 9.65157ZM12.1911 2.00336L12.1637 2.74978L12.1911 2.00336ZM11.8245 2.00336L11.8519 2.74978L11.8245 2.00336ZM10.0078 17.0727C9.5953 17.0727 9.26089 17.4071 9.26089 17.8197C9.26089 18.2322 9.5953 18.5666 10.0078 18.5666V17.0727ZM14.0078 18.5666C14.4203 18.5666 14.7547 18.2322 14.7547 17.8197C14.7547 17.4071 14.4203 17.0727 14.0078 17.0727V18.5666ZM3.48513 15.5888C2.9708 14.0059 2.60435 12.8748 2.41205 11.9565C2.22335 11.0553 2.2192 10.4299 2.38262 9.85618L0.945912 9.44695C0.691879 10.3388 0.733664 11.2299 0.949918 12.2626C1.16258 13.2782 1.5601 14.4984 2.0644 16.0505L3.48513 15.5888ZM5.86245 4.36128C4.54217 5.32052 3.50338 6.074 2.73438 6.77063C1.9524 7.47902 1.39482 8.17537 1.07612 9.04621L2.47898 9.55961C2.68399 8.99943 3.05496 8.49588 3.73731 7.87774C4.43266 7.24784 5.39397 6.54815 6.74051 5.56983L5.86245 4.36128ZM2.38262 9.85618C2.4111 9.75618 2.44324 9.65726 2.47898 9.55961L1.07612 9.04621C1.02783 9.17816 0.984402 9.31183 0.945912 9.44695L2.38262 9.85618ZM12.0078 21.7809C10.3434 21.7809 9.15442 21.7799 8.22163 21.679C7.30626 21.58 6.71016 21.3907 6.21503 21.058L5.38187 22.2979C6.15156 22.8151 7.01196 23.0508 8.06098 23.1642C9.09258 23.2758 10.3759 23.2748 12.0078 23.2748V21.7809ZM2.0644 16.0505C2.5687 17.6025 2.9643 18.8233 3.3892 19.77C3.82127 20.7326 4.31124 21.4781 5.04098 22.0503L5.96275 20.8747C5.49334 20.5066 5.12908 19.9982 4.75205 19.1582C4.36785 18.3023 3.99947 17.1718 3.48513 15.5888L2.0644 16.0505ZM6.21503 21.058C6.12873 21 6.04458 20.9389 5.96275 20.8747L5.04098 22.0503C5.15154 22.137 5.26525 22.2196 5.38187 22.2979L6.21503 21.058ZM20.5305 15.5888C20.0162 17.1718 19.6478 18.3023 19.2636 19.1582C18.8866 19.9982 18.5223 20.5066 18.0529 20.8747L18.9747 22.0503C19.7044 21.4781 20.1944 20.7326 20.6264 19.77C21.0513 18.8233 21.4469 17.6025 21.9512 16.0505L20.5305 15.5888ZM12.0078 23.2748C13.6398 23.2748 14.9231 23.2758 15.9547 23.1642C17.0037 23.0508 17.8641 22.8151 18.6338 22.2979L17.8006 21.058C17.3055 21.3907 16.7094 21.58 15.794 21.679C14.8612 21.7799 13.6722 21.7809 12.0078 21.7809V23.2748ZM18.0529 20.8747C17.9711 20.9389 17.8869 21 17.8006 21.058L18.6338 22.2979C18.7504 22.2196 18.8641 22.137 18.9747 22.0503L18.0529 20.8747ZM17.2751 5.56983C18.6217 6.54815 19.583 7.24784 20.2783 7.87774C20.9607 8.49588 21.3317 8.99943 21.5367 9.55961L22.9395 9.04621C22.6208 8.17537 22.0632 7.47902 21.2813 6.77063C20.5123 6.074 19.4735 5.32052 18.1532 4.36128L17.2751 5.56983ZM21.9512 16.0505C22.4555 14.4984 22.8531 13.2782 23.0657 12.2626C23.282 11.2299 23.3238 10.3388 23.0697 9.44695L21.633 9.85618C21.7964 10.4299 21.7923 11.0553 21.6036 11.9565C21.4113 12.8748 21.0448 14.0059 20.5305 15.5888L21.9512 16.0505ZM21.5367 9.55961C21.5724 9.65725 21.6045 9.75618 21.633 9.85618L23.0697 9.44695C23.0312 9.31183 22.9878 9.17816 22.9395 9.04621L21.5367 9.55961ZM18.1532 4.36128C16.8329 3.40205 15.7953 2.64693 14.8951 2.13084C13.9798 1.60604 13.1452 1.29093 12.2185 1.25694L12.1637 2.74978C12.7599 2.77165 13.3534 2.96887 14.1521 3.42681C14.9661 3.89346 15.9286 4.59151 17.2751 5.56983L18.1532 4.36128ZM6.74051 5.56983C8.08705 4.59151 9.04956 3.89346 9.8635 3.42681C10.6622 2.96887 11.2558 2.77165 11.8519 2.74978L11.7971 1.25694C10.8704 1.29093 10.0359 1.60604 9.1205 2.13084C8.22033 2.64693 7.18272 3.40205 5.86245 4.36128L6.74051 5.56983ZM12.2185 1.25694C12.0781 1.25179 11.9375 1.25179 11.7971 1.25694L11.8519 2.74978C11.9558 2.74597 12.0598 2.74597 12.1637 2.74978L12.2185 1.25694ZM10.0078 18.5666H14.0078V17.0727H10.0078V18.5666Z" fill="#232323"/>
</g>
<defs>
<clipPath id="clip0_636_13937">
<rect width="24" height="24" fill="white" transform="translate(0.0078125)"/>
</clipPath>
</defs>
</svg>
