<svg width="25" height="25" viewBox="0 0 25 25" fill="none" xmlns="http://www.w3.org/2000/svg">
<path d="M2.8999 12.8047C2.8999 8.32635 2.8999 6.08718 4.29114 4.69593C5.68239 3.30469 7.92156 3.30469 12.3999 3.30469C16.8782 3.30469 19.1174 3.30469 20.5087 4.69593C21.8999 6.08718 21.8999 8.32635 21.8999 12.8047C21.8999 17.283 21.8999 19.5222 20.5087 20.9135C19.1174 22.3047 16.8782 22.3047 12.3999 22.3047C7.92156 22.3047 5.68239 22.3047 4.29114 20.9135C2.8999 19.5222 2.8999 17.283 2.8999 12.8047Z" stroke="#141B34" stroke-width="1.5"/>
<path d="M12.6421 17.8047V12.8047C12.6421 12.3333 12.6421 12.0976 12.4956 11.9511C12.3492 11.8047 12.1135 11.8047 11.6421 11.8047" stroke="#141B34" stroke-width="1.5" stroke-linecap="round" stroke-linejoin="round"/>
<path d="M12.3918 8.80469H12.4008" stroke="#141B34" stroke-width="2" stroke-linecap="round" stroke-linejoin="round"/>
</svg>
