<svg width="75" height="74" viewBox="0 0 75 74" fill="none" xmlns="http://www.w3.org/2000/svg">
<rect x="0.165771" width="74" height="74" rx="12" fill="#0173E5"/>
<path fill-rule="evenodd" clip-rule="evenodd" d="M36.0302 30.7172C36.974 30.7172 37.7606 30.2146 37.8655 29.6617L38.7569 19.5594C38.7569 18.5542 37.5508 17.75 36.0302 17.75C34.5095 17.75 33.3035 18.5542 33.3035 19.5594L34.2473 29.6617C34.3522 30.2649 35.0863 30.7172 36.0302 30.7172ZM30.367 33.8836C30.839 33.0794 30.7865 32.225 30.3146 31.8229L21.6626 25.9927C20.7712 25.4901 19.4078 26.0932 18.6737 27.3498C17.8872 28.6063 18.0445 30.0638 18.9359 30.5162L28.4793 34.8386C29.0561 35.0396 29.8951 34.6375 30.367 33.8836ZM41.6933 33.8334C42.1652 34.6375 42.9518 35.0396 43.581 34.7883L53.1245 30.5162C54.0159 30.0136 54.1732 28.6063 53.3866 27.3498C52.6001 26.0932 51.2892 25.4901 50.3978 25.9927L41.7982 31.8229C41.2738 32.225 41.2738 33.0794 41.6933 33.8334ZM36.0302 43.2823C36.974 43.2823 37.7606 43.7849 37.8655 44.3378L38.7569 54.4401C38.7569 55.4454 37.5508 56.2495 36.0302 56.2495C34.5095 56.2495 33.3035 55.4454 33.3035 54.4401L34.2473 44.3378C34.3522 43.7347 35.0863 43.2823 36.0302 43.2823ZM41.6933 40.1662C42.1652 39.362 42.9518 38.9599 43.581 39.161L53.1245 43.4331C54.0159 43.9357 54.1732 45.343 53.3866 46.5995C52.6001 47.856 51.2892 48.4591 50.3978 47.9565L41.7982 42.1766C41.2738 41.8248 41.2738 40.9201 41.6933 40.1662ZM30.367 40.1662C30.839 40.9201 30.7865 41.8248 30.3146 42.2269L21.6626 48.0068C20.7712 48.4591 19.4078 47.9063 18.6737 46.5995C17.8872 45.343 18.0445 43.9357 18.9359 43.4331L28.5318 39.161C29.0561 38.9599 29.8951 39.362 30.367 40.1662ZM55.1695 47.1021H55.2744C55.3792 47.1021 55.4841 47.0519 55.4841 47.0016C55.4841 46.9011 55.4317 46.9011 55.3268 46.9011H55.2219V47.1021H55.1695ZM55.1695 47.5545H54.9597V46.7503H55.2744C55.4317 46.7503 55.4841 46.7503 55.589 46.8006C55.6414 46.8508 55.6939 46.9011 55.6939 46.9513C55.6939 47.0519 55.6414 47.1021 55.5365 47.1524C55.6414 47.2026 55.6939 47.2529 55.6939 47.3534C55.6939 47.5042 55.7463 47.5042 55.7463 47.5545H55.5365C55.4841 47.5042 55.4841 47.4539 55.4841 47.3534C55.4841 47.2529 55.4317 47.2529 55.3268 47.2529H55.2219L55.1695 47.5545ZM55.3268 46.499C54.9597 46.499 54.6976 46.8006 54.6976 47.1524C54.6976 47.5042 54.9597 47.8058 55.3268 47.8058C55.6939 47.8058 55.956 47.5042 55.956 47.1524C55.956 46.8006 55.6939 46.499 55.3268 46.499ZM55.3268 46.3482C55.7987 46.3482 56.1658 46.7 56.1658 47.1524C56.1658 47.6047 55.7987 47.9565 55.3268 47.9565C54.8549 47.9565 54.4354 47.6047 54.4354 47.1524C54.4354 46.7 54.8024 46.3482 55.3268 46.3482Z" fill="#F3B53B"/>
</svg>
