<svg width="75" height="74" viewBox="0 0 75 74" fill="none" xmlns="http://www.w3.org/2000/svg">
<rect x="0.165771" width="74" height="74" rx="12" fill="#F60000"/>
<path d="M49.1596 38.8398L36.9788 41.875L25.1658 38.8398V52.3748L36.9788 49.3397L49.1596 52.3338V38.8398Z" fill="#C10C1A"/>
<path fill-rule="evenodd" clip-rule="evenodd" d="M44.4181 48.6425V49.6679C44.4181 49.7089 44.3772 49.7499 44.3364 49.7499L42.4561 49.2987C42.4152 49.2987 42.4152 49.2577 42.4152 49.2577V42.039C42.4152 41.998 42.4561 41.998 42.4561 41.998C42.9466 41.875 44.0502 41.6699 44.3364 41.5879C44.3772 41.5469 44.4181 41.5879 44.4181 41.6289V42.6543C44.4181 42.6953 44.3772 42.6953 44.3772 42.6953L43.4371 42.8594C43.3962 42.8594 43.3962 42.9004 43.3962 42.9004V44.7871C43.3962 44.8281 43.4371 44.8691 43.4371 44.8691L44.0911 44.8281C44.132 44.8281 44.1729 44.8691 44.1729 44.8691V45.8124C44.1729 45.8535 44.132 45.8945 44.0911 45.8945L43.4371 45.9355C43.3962 45.9355 43.3962 45.9765 43.3962 45.9765V48.2323C43.3962 48.2734 43.3962 48.2734 43.4371 48.2734L44.3364 48.4374C44.4181 48.5605 44.4181 48.6015 44.4181 48.6425ZM35.8752 45.4433C35.916 45.4843 35.916 45.4433 35.916 45.4023V43.1054C35.916 43.0644 35.9569 43.0234 35.9978 43.0644L36.5292 43.1875C36.57 43.1875 36.57 43.2285 36.57 43.2285V48.1503C36.57 48.1913 36.5292 48.1913 36.5292 48.1913L36.0387 48.2734C35.9978 48.2734 35.9569 48.2734 35.9569 48.2323L35.3029 45.5253C35.3029 45.5253 35.262 45.5253 35.262 45.4843H35.2211C35.1803 45.4843 35.1803 45.5253 35.1803 45.5253V48.3964C35.1803 48.4374 35.1394 48.4784 35.1394 48.4784L34.5671 48.6015C34.5263 48.6425 34.4854 48.6015 34.4854 48.5605C34.4854 48.5605 34.4854 42.8594 34.4854 42.7773C34.4854 42.7363 34.5263 42.6953 34.5671 42.6953L35.1803 42.8594C35.2211 42.8594 35.2211 42.9004 35.2211 42.9004L35.7525 45.3203L35.7934 45.4023C35.8343 45.4433 35.8343 45.4433 35.8752 45.4433ZM37.7554 48.2734C37.3058 48.1913 37.224 47.8632 37.224 47.453V45.5664V43.9257C37.2649 43.3926 37.2649 43.1875 37.7554 43.0644C38.0824 42.9824 38.4912 42.9004 38.4912 42.9004L38.8591 42.8183C39.3087 42.6953 39.5131 43.0644 39.5131 43.5566L39.5539 44.541C39.5539 44.582 39.5131 44.623 39.4722 44.623H38.7773C38.7364 44.623 38.7364 44.582 38.7364 44.582L38.6547 44.541V43.8437C38.6547 43.7207 38.5729 43.6386 38.4912 43.6797L38.2868 43.7207C38.2868 43.7207 38.0415 43.7617 38.0415 43.9257C38.0415 43.9257 38.0415 46.1406 38.0415 47.1249C38.0415 47.1659 38.0415 47.207 38.0824 47.248C38.0824 47.289 38.0824 47.33 38.0824 47.371C38.0824 47.4941 38.1642 47.5761 38.2459 47.5761L38.5729 47.6171C38.6138 47.6171 38.7364 47.5761 38.7364 47.453V46.5097L38.5729 46.4687C38.5321 46.4687 38.5321 46.4277 38.5321 46.4277V45.6074C38.5321 45.5664 38.5729 45.5664 38.5729 45.5664H39.5131C39.5539 45.5664 39.5539 45.6074 39.5539 45.6484V47.7812C39.5539 48.2734 39.3087 48.6835 38.8182 48.5605L37.7554 48.2734ZM40.1671 48.7655V42.5312C40.1671 42.4902 40.2079 42.4902 40.2079 42.4902L41.0255 42.3262C41.0663 42.3262 41.1072 42.3672 41.1072 42.3672V47.9452C41.1072 47.9862 41.1481 47.9862 41.1481 47.9862L41.843 48.1093C41.8838 48.1093 41.8838 48.1503 41.8838 48.1503L41.9247 49.0526C41.9247 49.0937 41.8838 49.1347 41.843 49.0937L40.2079 48.7655C40.2079 48.8476 40.1671 48.8065 40.1671 48.7655ZM32.9321 42.4082C32.9321 42.3672 32.973 42.3262 33.0139 42.3672L33.7496 42.5312C33.7905 42.5722 33.7905 42.5722 33.7905 42.6133C33.7905 42.9414 33.7905 47.8222 33.7905 48.7245C33.7905 48.7655 33.7496 48.7655 33.7496 48.7655L33.0139 48.9296C32.973 48.9296 32.9321 48.8886 32.9321 48.8886C32.9321 48.8886 32.9321 42.4902 32.9321 42.4082ZM28.2315 41.3008C28.8446 41.4648 29.3351 42.039 29.2942 42.6543V45.4023C29.2942 46.0585 28.7628 46.6327 28.0679 46.7148H27.7001C27.6183 46.7148 27.6183 46.7558 27.6183 46.7968V50.037C27.6183 50.078 27.6183 50.078 27.5774 50.078L26.6782 50.3241C26.6373 50.3651 26.5964 50.3241 26.5964 50.2831V41.0137C26.5964 40.9727 26.6373 40.9727 26.6782 40.9727L27.7818 41.2187L28.2315 41.3008ZM27.7001 42.2441C27.6592 42.2441 27.6183 42.2851 27.6183 42.2851C27.6183 42.5722 27.6183 43.5156 27.6183 43.9257C27.6183 44.3769 27.6183 45.3203 27.6183 45.6074C27.6183 45.6484 27.6592 45.6484 27.7001 45.6484H27.9453C28.2315 45.6484 28.4358 45.4023 28.4358 45.1152C28.4358 44.9511 28.4358 43.2285 28.4358 42.8594C28.4358 42.5312 28.1906 42.2851 27.9044 42.2031L27.7001 42.2441Z" fill="white"/>
<path fill-rule="evenodd" clip-rule="evenodd" d="M32.278 44.6648C32.278 45.0339 32.2371 45.362 31.8283 45.5261C32.278 45.7311 32.3188 46.0593 32.3597 46.4694C32.3597 47.0846 32.3188 48.2741 32.3188 48.2741V49.0124C32.3188 49.0534 32.3188 49.0534 32.278 49.0944L31.5422 49.2585C31.5013 49.2585 31.4605 49.2174 31.4605 49.2174L31.4196 48.7663C31.4196 48.11 31.4196 47.4538 31.4196 46.7975C31.4196 46.6335 31.4196 46.5104 31.4196 46.3464C31.3787 46.1823 31.2561 46.0183 31.0926 46.0183C30.9291 46.0183 30.8473 46.0183 30.8064 46.0183C30.7656 46.0183 30.7247 46.0593 30.7247 46.0593V49.3405C30.7247 49.3815 30.7247 49.3815 30.6838 49.4225L29.9072 49.5866C29.8663 49.6276 29.8254 49.5866 29.8254 49.5456V41.7527C29.8254 41.7117 29.8663 41.7117 29.9072 41.7117L31.5831 42.0808C32.0736 42.2038 32.278 42.4499 32.278 42.9831V44.6648ZM31.3787 43.3113C31.3787 43.1062 31.2152 42.9421 31.0517 42.9011L30.8064 42.8191C30.7656 42.8191 30.7247 42.8601 30.7247 42.9011C30.7247 43.1472 30.7247 43.7624 30.7247 44.0085C30.7247 44.2956 30.7247 44.9108 30.7247 45.1159C30.7247 45.1569 30.7656 45.1569 30.8064 45.1569H31.0926C31.2561 45.1569 31.3378 45.0749 31.3378 44.9519C31.3787 44.9108 31.3787 44.7878 31.3787 44.7058C31.4196 44.2956 31.4196 43.8034 31.3787 43.3113ZM47.8106 47.8639C47.8106 47.905 47.8106 48.8073 47.8106 48.8483C47.8106 50.1608 47.5654 50.5709 46.2982 50.2428C45.399 50.0377 44.9085 49.9147 44.9085 48.5202V46.8796C44.9085 46.7565 44.9902 46.7565 45.3581 46.7565C45.6851 46.7565 45.8895 46.7565 45.8895 46.8796V48.3971C45.8895 48.9713 46.0121 49.0124 46.2982 49.0534C46.5435 49.0944 46.6661 49.0534 46.707 48.7253C46.707 48.5202 46.707 47.905 46.707 47.7409C46.707 46.2233 44.9493 45.5671 44.9493 43.3933C44.9493 43.3113 44.9493 42.7781 44.9493 42.737C44.9493 41.5066 45.3172 41.3015 46.2982 41.0964C47.3201 40.8914 47.7697 40.8503 47.7697 42.1628V44.0495C47.7697 44.1316 47.6062 44.1316 47.3201 44.1316C46.9931 44.1316 46.7887 44.1316 46.7887 44.0495V42.655C46.7887 42.3269 46.6252 42.1628 46.4209 42.2038C46.1756 42.2449 46.053 42.3269 46.053 42.655C46.0121 42.8601 46.053 43.2702 46.053 43.4343C46.0121 44.9519 47.8106 45.5261 47.8106 47.8639Z" fill="white"/>
<path d="M26.2693 35.0225C27.1277 39.6572 32.7685 42.5693 38.818 41.3799C44.9085 40.2724 49.1186 35.5557 48.2194 30.88C47.361 26.2453 41.7202 23.3742 35.6706 24.5226C29.6211 25.6711 25.4109 30.3878 26.2693 35.0225Z" fill="#EB191A"/>
<path d="M35.2619 27.9695C35.3436 28.7078 35.0166 29.323 34.5261 29.323C33.9947 29.364 33.5042 28.7488 33.4225 28.0105C33.3407 27.2723 33.6677 26.6981 34.1991 26.657C34.6896 26.657 35.1393 27.2313 35.2619 27.9695ZM42.9873 27.1902C43.0282 27.8465 42.7421 28.2977 42.2924 28.2977C41.8428 28.2566 41.3932 27.6824 41.3932 27.0262C41.3523 26.411 41.6793 25.9188 42.1289 25.9598C42.5786 26.0008 42.9465 26.575 42.9873 27.1902ZM46.2574 29.118C46.1347 29.0769 46.053 29.159 46.0939 29.241C46.3391 29.7332 46.3391 30.4715 45.5625 30.4715C44.745 30.4715 43.6413 29.4461 42.1698 29.4461C41.1479 29.4461 40.0034 30.1843 39.8808 31.7839C39.1859 30.7175 37.9597 29.9793 36.4881 29.9793C33.7904 29.9793 31.8692 33.2605 29.6211 33.2605C28.6401 33.2605 28.3539 32.3992 28.5583 31.7429C28.5992 31.6199 28.4766 31.5378 28.3948 31.6199C27.6182 32.2351 27.3729 33.2605 27.3729 34.2859C27.3729 37.0339 30.1525 39.3717 33.8721 39.3717C37.3874 39.3717 40.4122 37.239 40.5348 34.1218C41.2706 35.1472 42.4559 35.7624 43.6822 35.7624C45.6442 35.7624 47.5245 34.3679 47.5245 31.948C47.5245 30.8406 46.9522 29.5691 46.2574 29.118ZM33.5451 21.6532C32.0736 21.6122 30.8065 22.9657 30.6838 24.6883C30.6838 24.7703 30.6838 24.8524 30.6838 24.9344C30.6838 25.0164 30.7247 25.0575 30.8065 25.0985C30.8065 25.0985 30.8065 25.0985 30.8473 25.0985C30.8882 25.0985 30.9291 25.0575 30.97 24.9754C31.297 23.5809 32.5641 22.5965 34.0356 22.6786C34.3626 22.6786 34.6896 22.7196 35.0166 22.8837C35.0984 22.9247 35.1801 22.8837 35.2619 22.8016C35.3436 22.6786 35.3028 22.5555 35.2619 22.4735C34.7714 21.9813 34.1991 21.6942 33.5451 21.6532ZM43.7231 23.745C43.6822 23.6629 43.6822 23.5809 43.6822 23.4989C43.437 22.7606 42.9465 22.1044 42.2924 21.8173C41.8428 21.6122 41.3932 21.5712 40.9844 21.6942C40.5348 21.8583 40.2078 22.1864 39.9625 22.6786C39.9217 22.7606 39.9217 22.8837 40.0034 22.9657C40.0852 23.0067 40.2078 23.0067 40.2896 22.9657C40.4531 22.8016 40.6166 22.7196 40.8618 22.6376C41.8837 22.3094 42.9465 22.8016 43.4778 23.827C43.4778 23.868 43.5187 23.868 43.5596 23.868C43.6005 23.868 43.6005 23.868 43.6005 23.868C43.6822 23.868 43.7231 23.786 43.7231 23.745Z" fill="#1C1C1A"/>
</svg>
