<svg width="149" height="182" viewBox="0 0 149 182" fill="none" xmlns="http://www.w3.org/2000/svg">
<path d="M137.767 149.766H11.2068C6.93276 149.766 3.0841 147.366 1.18003 143.522C-0.724039 139.678 -0.298663 135.143 2.27386 131.726L8.99888 122.818C15.1972 114.602 18.6003 104.413 18.6003 94.1017V61.9684C18.6003 49.9693 23.0161 38.4176 30.997 29.4284C38.9374 20.5206 49.7541 14.8057 61.4419 13.3821C62.8801 13.1991 63.9536 11.9991 63.9536 10.5755C63.9536 4.73864 68.6733 0 74.4868 0C80.3003 0 85.02 4.73864 85.02 10.5755C85.02 11.9991 86.0935 13.1991 87.5317 13.3821C98.5308 14.7244 108.861 19.9104 116.64 27.9844C117.875 29.286 117.855 31.3401 116.559 32.5807C115.262 33.8213 113.216 33.801 111.981 32.4994C105.236 25.5032 96.2621 20.9883 86.7417 19.8291C82.0626 19.2596 78.538 15.2735 78.538 10.5755C78.538 8.33838 76.715 6.50801 74.4868 6.50801C72.2586 6.50801 70.4356 8.33838 70.4356 10.5755C70.4356 15.2735 66.911 19.2596 62.2319 19.8291C41.044 22.412 25.062 40.5327 25.062 61.9481V94.0814C25.062 105.796 21.193 117.388 14.1439 126.723L7.43916 135.651C6.32508 137.116 6.16303 138.987 6.97327 140.634C7.78351 142.281 9.36349 143.258 11.2068 143.258H137.787C139.61 143.258 141.21 142.281 142.021 140.634C142.831 138.987 142.669 137.136 141.555 135.651L134.83 126.743C127.781 117.388 123.912 105.796 123.912 94.1017V61.9684C123.912 60.1787 125.37 58.7144 127.153 58.7144C128.935 58.7144 130.394 60.1787 130.394 61.9684V94.1017C130.394 104.392 133.797 114.602 139.995 122.818L146.72 131.726C149.313 135.163 149.718 139.678 147.814 143.522C145.91 147.366 142.061 149.766 137.767 149.766Z" fill="#E8E8E8"/>
<path d="M101.589 154.344C103.575 154.344 105.094 156.113 104.79 158.066C103.007 169.78 92.9199 178.749 80.7662 178.749C68.6126 178.749 58.525 169.78 56.7425 158.066C56.4387 156.093 57.9781 154.344 59.943 154.344H101.589Z" fill="#232323"/>
<path d="M74.284 181.999C67.6602 181.999 61.2593 179.599 56.256 175.267C51.3136 170.956 48.0321 165.037 47.0598 158.57C46.7762 156.699 47.3231 154.808 48.5385 153.364C49.7741 151.92 51.5769 151.086 53.4607 151.086H95.087C96.991 151.086 98.7736 151.92 100.009 153.364C101.245 154.808 101.771 156.699 101.488 158.57C100.495 165.037 97.2341 170.956 92.2916 175.267C87.3086 179.599 80.9077 181.999 74.284 181.999ZM53.4607 157.594C55.0204 167.803 63.9736 175.491 74.284 175.491C84.5943 175.491 93.5272 167.803 95.1072 157.594H53.4607Z" fill="#E8E8E8"/>
<ellipse cx="122.41" cy="44.9639" rx="15.9233" ry="15.9873" fill="#232323"/>
</svg>
