<svg width="181" height="302" viewBox="0 0 181 302" fill="none" xmlns="http://www.w3.org/2000/svg">
<g clip-path="url(#clip0_636_11788)">
<path d="M93.1781 151.911C90.3759 151.669 87.1531 152.637 85.8104 155.359C85.4693 156.098 86.3749 156.704 86.9864 156.209C89.6945 154.715 92.4872 154.319 95.6297 153.917C95.8644 153.882 96.0764 153.729 96.175 153.493C96.5527 152.206 94.0488 152.085 93.1781 151.91V151.911Z" fill="#DCE4DD"/>
<path d="M52.0829 30.2514C52.185 30.7208 52.4703 31.1073 52.8576 31.3725C53.163 31.5557 53.4893 31.6578 53.8365 31.6578C53.9587 31.6578 54.0808 31.6578 54.2239 31.6168L102.59 21.2627C103.568 21.0384 104.18 20.1006 103.976 19.1226L103.486 16.8804C103.282 15.9024 102.324 15.3109 101.367 15.4941L52.9798 25.8691C52.5113 25.9712 52.1038 26.2565 51.8587 26.6439C51.5935 27.0513 51.5123 27.5407 51.6144 28.0092L52.0829 30.2505V30.2514ZM52.7154 27.2144C52.8175 27.0312 53.0007 26.9091 53.2049 26.8681L101.571 16.493C101.632 16.493 101.693 16.473 101.734 16.473C101.897 16.473 102.04 16.5341 102.163 16.6161C102.326 16.7181 102.448 16.9013 102.489 17.0846L102.978 19.3468C103.06 19.7542 102.795 20.1616 102.388 20.2637L54.0005 30.6178C53.5931 30.7199 53.1647 30.4547 53.0836 30.0272L52.5942 27.785C52.5532 27.5809 52.5942 27.3776 52.7163 27.2144H52.7154Z" fill="#DCE4DD"/>
<path d="M58.1976 47.5944L72.2003 44.5775C73.4435 44.3131 74.2592 43.09 73.994 41.8468L72.4655 34.7948C72.2003 33.5516 70.978 32.7568 69.7348 33.0011L55.7121 36.018C55.1005 36.1401 54.591 36.5074 54.2446 37.0169C53.9183 37.5465 53.7962 38.1581 53.9393 38.7697L55.4477 45.8216C55.6719 46.9017 56.6299 47.6354 57.71 47.6354C57.8731 47.6354 58.0362 47.6153 58.1994 47.5944H58.1976ZM56.4449 45.5974L54.9365 38.5455C54.8553 38.2192 54.9164 37.8728 55.0996 37.5675C55.3038 37.2822 55.5891 37.078 55.9153 37.0169L69.938 34.0001C70.0401 33.98 70.1213 33.98 70.2033 33.98C70.8148 33.98 71.3444 34.3874 71.4666 34.999L72.9951 42.0509C73.1381 42.7445 72.6897 43.4372 71.9961 43.5794L57.9734 46.5963C57.2807 46.7394 56.5871 46.291 56.4449 45.5974Z" fill="#DCE4DD"/>
<path d="M57.5651 55.9508L57.7893 56.9288C57.9525 57.7437 58.441 58.4372 59.1346 58.8647C59.6241 59.191 60.1946 59.3742 60.7853 59.3742C61.0095 59.3742 61.2136 59.3542 61.4379 59.2922L139.603 42.5379C141.254 42.1916 142.335 40.5409 141.967 38.8894L141.763 37.8905C141.58 37.0957 141.112 36.4029 140.418 35.9545C139.724 35.5061 138.909 35.363 138.094 35.5261L59.9294 52.2804C58.2788 52.6469 57.2187 54.2775 57.5651 55.949V55.9508ZM138.32 36.5268C138.462 36.5068 138.605 36.4858 138.748 36.4858C139.706 36.4858 140.562 37.1384 140.766 38.1164L140.97 39.1154C141.214 40.2164 140.501 41.3165 139.401 41.5407L61.2354 58.295C60.6849 58.4172 60.1344 58.3151 59.686 58.0097C59.2175 57.7245 58.9121 57.2551 58.7891 56.7255L58.5649 55.7266C58.3407 54.6264 59.0334 53.5254 60.1545 53.2811L138.32 36.5268Z" fill="#DCE4DD"/>
<path d="M74.4416 66.9158C74.3605 66.5285 74.1153 66.1821 73.7899 65.9579C73.4435 65.7537 73.0562 65.6726 72.6688 65.7537L62.2327 67.9959C61.4178 68.159 60.9083 68.9739 61.0706 69.7696L61.5801 72.1949C61.6612 72.5823 61.9064 72.9086 62.2318 73.1328C62.477 73.296 62.7614 73.378 63.0475 73.378C63.1496 73.378 63.2718 73.3579 63.3738 73.337L73.8091 71.1149C74.1964 71.0128 74.5227 70.7886 74.7469 70.4631C74.9712 70.1168 75.0322 69.7094 74.9511 69.322L74.4416 66.9167V66.9158ZM73.892 69.8926C73.8309 70.0147 73.7087 70.0758 73.5866 70.1168L63.1514 72.3389C63.0292 72.379 62.9071 72.359 62.805 72.2778C62.6829 72.2167 62.6218 72.0946 62.5808 71.9725L62.0713 69.5672C62.0512 69.445 62.0713 69.3028 62.1324 69.2007C62.2135 69.0987 62.3156 69.0175 62.4377 68.9966L72.873 66.7553H72.975C73.0771 66.7553 73.1582 66.7753 73.2402 66.8164C73.3423 66.8984 73.4235 66.9996 73.4444 67.1217L73.9539 69.5471C73.9949 69.6692 73.974 69.7922 73.8928 69.8934L73.892 69.8926Z" fill="#DCE4DD"/>
<path d="M90.136 63.5564C90.0539 63.1691 89.8306 62.8227 89.4842 62.5985C89.158 62.3943 88.7505 62.3132 88.3632 62.3944L77.9279 64.6365C77.5406 64.7185 77.1942 64.9419 76.9901 65.2882C76.7658 65.6145 76.6847 66.0219 76.7658 66.4093L77.2954 68.8347C77.3774 69.222 77.6008 69.5483 77.9471 69.7726C78.1923 69.9357 78.4767 70.0168 78.7628 70.0168C78.8649 70.0168 78.9661 69.9968 79.0682 69.9758L89.5043 67.7337C89.8917 67.6517 90.238 67.4274 90.4622 67.0811C90.6664 66.7548 90.7475 66.3474 90.6664 65.96L90.1368 63.5547L90.136 63.5564ZM89.6064 66.5323C89.5244 66.6545 89.4232 66.7155 89.301 66.7565L78.8658 68.9778C78.7437 69.0188 78.6006 68.9778 78.4985 68.9167C78.3964 68.8556 78.3153 68.7335 78.2952 68.6113L77.7657 66.206C77.7456 66.0839 77.7657 65.9408 77.8468 65.8387C77.9079 65.7367 78.0099 65.6555 78.1321 65.6346L88.5673 63.3924C88.6083 63.3924 88.6484 63.3724 88.6694 63.3724C88.7715 63.3724 88.8526 63.4134 88.9346 63.4544C89.0367 63.5364 89.1178 63.6376 89.1388 63.7597L89.6683 66.1851C89.6884 66.3072 89.6683 66.4294 89.6073 66.5315L89.6064 66.5323Z" fill="#DCE4DD"/>
<path d="M105.565 60.251C105.382 59.4353 104.587 58.9258 103.771 59.089L93.3352 61.3311C92.5203 61.4943 92.0108 62.31 92.194 63.1048L92.7035 65.5101C92.7847 65.9175 93.0089 66.2438 93.3553 66.468C93.5995 66.6312 93.8848 66.7132 94.171 66.7132C94.2731 66.7132 94.3751 66.6931 94.4763 66.6722L104.912 64.43C105.727 64.2669 106.237 63.4721 106.074 62.6572L105.564 60.2519L105.565 60.251ZM104.709 63.4311L94.273 65.6733C94.1509 65.7143 94.0288 65.6733 93.9066 65.6122C93.8046 65.5511 93.7234 65.429 93.7025 65.3068L93.1729 62.9015C93.1319 62.6372 93.2951 62.3719 93.5603 62.3309L103.996 60.0896C104.016 60.0896 104.057 60.0696 104.078 60.0696C104.302 60.0696 104.506 60.2327 104.567 60.4569L105.076 62.8623C105.138 63.1275 104.974 63.3918 104.71 63.4328L104.709 63.4311Z" fill="#DCE4DD"/>
<path d="M173.132 264.194C173.112 264.194 173.03 264.255 172.888 264.316C172.888 264.316 172.887 264.316 172.886 264.316C171.655 261.641 167.875 253.206 165.893 246.268C163.586 238.191 164.67 227.952 165.897 223.396C167.139 218.786 166.315 200.279 166.275 199.642C167.19 190.503 164.155 183.799 157.501 180.253C151.693 177.164 147.411 178.953 145.222 180.468C144.521 175.47 141.488 172.186 135.612 169.965C129.807 167.77 126.86 170.66 125.672 172.418C123.838 168.495 120.656 164.042 113.6 163.828C110.728 163.742 108.493 164.53 106.869 166.175C105.745 167.311 105.129 168.668 104.774 169.888C103.764 166.363 102.467 161.98 100.967 157.224L119.522 153.32C121.122 152.983 122.495 152.042 123.389 150.675C124.231 149.38 124.53 147.851 124.281 146.337C124.287 146.339 124.292 146.342 124.298 146.344C124.645 146.446 125.012 146.486 125.419 146.486C126.153 146.486 126.969 146.323 127.845 145.916C130.005 144.917 131.513 142.757 131.758 140.29C132.044 137.661 131.31 135.194 129.679 133.197C129.231 132.647 128.721 132.178 128.151 131.832C128.148 131.83 128.146 131.829 128.144 131.829C126.264 129.767 121.679 129.107 120.707 128.99L120.389 127.411C121.305 127.92 122.282 128.204 123.279 128.225H123.462C125.297 128.225 126.744 127.675 127.784 126.595C129.231 125.086 129.822 122.6 129.597 118.972C129.414 116.242 128.394 114.264 127.091 112.939L127.05 112.898C127.027 112.876 127.003 112.859 126.98 112.837C122.495 108.507 116.603 108.41 116.354 108.408H116.346C116.34 108.408 116.335 108.411 116.329 108.411L115.563 104.772C116.642 105.522 117.902 105.928 119.203 105.928C119.427 105.928 119.652 105.928 119.876 105.887C122.852 105.561 124.972 103.462 125.705 100.18C126.398 97.1229 125.665 93.6375 123.749 90.8649C122.505 89.0511 120.977 87.889 119.57 87.6858C118.306 87.5025 116.737 87.869 114.883 88.7658C113.945 89.2143 113.17 89.907 112.621 90.7628C112.62 90.7646 112.619 90.7663 112.618 90.7681L108.256 70.0355H108.26L146.313 61.8816C148.188 61.4742 149.779 60.3732 150.818 58.7635C151.857 57.1539 152.204 55.2372 151.817 53.3623L141.809 6.68772C140.973 2.81496 137.161 0.348581 133.29 1.16431L95.4711 9.2745L94.5428 4.86607C94.2061 3.26514 93.2673 1.89105 91.8976 0.997675C90.5261 0.101681 88.8877 -0.204545 87.2911 0.134834L24.3229 13.3819C22.7229 13.7187 21.3488 14.6592 20.4554 16.028C19.562 17.3986 19.2549 19.0336 19.5926 20.6345L22.6827 35.2243L21.4291 35.4869C20.8785 35.609 20.5322 36.1596 20.6343 36.7101L25.0165 57.5003C25.0776 57.7646 25.2207 57.9897 25.4449 58.1319C25.6281 58.254 25.8122 58.3151 26.0155 58.3151C26.0765 58.3151 26.1585 58.2951 26.2196 58.2741L27.5038 58.0098H27.5099L31.7325 77.9424C31.6636 77.8743 31.5973 77.7897 31.5284 77.7243C26.2597 72.7304 22.8215 73.6343 21.5861 74.2511C20.068 75.0127 19.2139 76.577 19.4085 78.2346L19.4504 78.5862C20.5933 88.0897 21.8627 106.01 17.5423 119.258C13.6033 131.339 12.8512 147.538 15.2435 168.777C16.4919 179.854 9.47054 194.155 8.47247 196.12C8.47073 196.12 8.46986 196.118 8.46811 196.118C8.30497 196.036 8.12175 195.934 7.95861 195.852C7.53024 195.628 7.00067 195.75 6.71538 196.118C6.49117 196.382 1.51827 202.599 0.00982432 213.401C-0.0303078 213.768 0.1119 214.135 0.417253 214.359C0.600465 214.482 18.8222 227.771 53.0846 233.804C53.1457 233.804 53.2067 233.824 53.2678 233.824C53.5941 233.824 53.8794 233.661 54.0827 233.417C54.3278 233.091 60.0955 225.244 58.7301 214.849C58.6691 214.4 58.3227 214.054 57.8743 213.973C57.8743 213.973 57.8307 213.97 57.7626 213.955C57.6588 204.784 63.5521 196.282 63.5416 196.282C65.1958 194.472 66.3552 193.331 68.1813 191.981C68.1943 192.095 68.2066 192.193 68.2205 192.31C69.0685 199.533 70.6476 212.977 75.2428 224.464C80.2576 237 86.608 241.902 96.2197 249.321L97.941 250.652C107.242 257.858 118.671 279.038 120.545 282.58C120.465 282.6 120.384 282.62 120.304 282.64C119.795 282.762 119.448 283.251 119.509 283.781C119.57 284.086 120.63 291.791 126.276 301.024C126.459 301.329 126.786 301.513 127.132 301.513H127.193C127.417 301.493 149.939 300.229 180.247 283.149C180.532 282.986 180.716 282.721 180.756 282.396C180.817 281.947 182.041 271.593 174.315 264.337C173.989 264.052 173.519 263.97 173.132 264.194ZM76.0847 117.147C74.7656 118.981 74.3581 122.337 74.8572 127.28L62.8498 129.946C61.1215 130.334 59.34 130.019 57.842 129.066C56.3449 128.113 55.3093 126.634 54.9254 124.9C54.5407 123.169 54.853 121.392 55.8066 119.893C56.7602 118.396 58.239 117.361 59.9716 116.977L96.5495 108.855C100.134 108.057 103.681 110.326 104.473 113.903C105.267 117.478 103.004 121.032 99.4276 121.826L88.7167 124.205C85.4704 117.109 83.2675 115.175 79.1548 115.435C77.8932 115.52 76.8306 116.111 76.0847 117.147ZM99.7818 123.417C104.237 122.426 107.054 117.999 106.066 113.547C105.077 109.094 100.654 106.27 96.1952 107.262L59.6183 115.384C57.4607 115.862 55.6182 117.153 54.4316 119.018C53.2443 120.881 52.8551 123.097 53.3341 125.255C53.8131 127.412 55.1034 129.253 56.9687 130.441C58.3122 131.297 59.839 131.737 61.3946 131.737C61.9966 131.737 62.6038 131.671 63.2057 131.538L75.05 128.908C75.5412 132.649 76.4825 137.181 77.8906 142.558C79.0178 146.86 79.9932 150.466 80.8107 153.42L57.9406 158.231C55.8528 158.671 53.7852 157.327 53.3455 155.233L25.6551 23.6418C25.4414 22.628 25.6351 21.5907 26.2013 20.7226C26.7684 19.8537 27.6382 19.2587 28.6537 19.0458L85.7862 7.02361C87.8861 6.5839 89.9434 7.92832 90.3831 10.0213L90.4529 10.3537L90.4424 10.3563L50.2492 18.9778C48.3743 19.3651 46.7638 20.4862 45.7238 22.0958C44.6848 23.6854 44.3375 25.6022 44.7458 27.477L54.7536 74.1717C55.4672 77.5349 58.4422 79.8382 61.7645 79.8382C62.2539 79.8382 62.7634 79.7972 63.252 79.675L103.238 71.1155L118.072 141.611C118.511 143.705 117.168 145.767 115.074 146.207L98.5107 149.693C97.168 145.708 95.7259 141.65 94.2235 137.765C92.2885 132.764 90.7434 128.833 89.3894 125.725L99.7801 123.416L99.7818 123.417ZM49.8234 150.513L49.6891 149.89C49.1883 147.553 48.3499 145.097 47.3919 142.71C47.3911 142.705 47.3928 142.7 47.3919 142.695L39.7616 106.588C39.9692 103.666 39.9204 100.805 39.6482 98.0634L51.748 155.567C52.0516 157.008 52.8961 158.244 54.1298 159.048C55.0362 159.639 56.0727 159.945 57.1301 159.945C57.5105 159.945 57.8943 159.905 58.2756 159.826L81.2486 154.993C81.6884 156.565 82.0722 157.916 82.4003 159.05L56.1364 164.575C55.0711 164.799 53.9788 164.596 53.0645 164.001C52.1511 163.404 51.5238 162.488 51.2987 161.421C51.2804 161.332 51.2342 161.259 51.1958 161.182C51.324 157.538 50.5388 153.835 49.8234 150.513ZM43.5314 134.285C43.3595 133.941 43.1824 133.585 43.0219 133.264C42.3955 132.012 41.8537 130.929 41.4672 130.079C40.5494 128.06 40.0626 121.884 39.8296 116.769L43.5314 134.285ZM129.739 140.088C129.556 141.841 128.496 143.369 127.007 144.063C124.358 145.286 123.032 143.207 122.89 142.962C122.849 142.921 122.829 142.86 122.788 142.819C121.952 141.8 121.545 140.373 121.341 139.191C121.136 138.009 121.136 137.072 121.136 137.072C121.381 134.687 122.462 133.362 124.479 133.016C125.804 132.772 127.128 133.321 128.086 134.483C129.411 136.093 129.961 137.969 129.737 140.089L129.739 140.088ZM122.683 131.427C122.242 131.609 121.78 131.87 121.358 132.229L121.133 131.11C121.615 131.189 122.146 131.297 122.683 131.427ZM126.314 125.188C125.642 125.881 124.704 126.248 123.318 126.187C121.79 126.167 120.302 125.229 119.222 123.619C117.97 121.802 117.544 119.546 117.952 117.522C118.043 117.377 118.081 117.207 118.09 117.03C118.094 117.019 118.096 117.005 118.1 116.994V116.974C118.141 116.832 118.182 116.689 118.243 116.546C119.486 113.244 121.525 112.918 122.299 112.918C122.462 112.918 122.564 112.938 122.584 112.938C122.645 112.958 122.706 112.958 122.767 112.958C123.355 112.978 124.227 113.222 125.059 113.848C125.104 113.887 125.149 113.929 125.194 113.969C125.345 114.096 125.494 114.222 125.621 114.364C125.634 114.377 125.648 114.384 125.662 114.384C126.62 115.342 127.415 116.85 127.558 119.093C127.741 122.069 127.333 124.127 126.314 125.187V125.188ZM120.425 111.242C120.418 111.244 120.411 111.244 120.404 111.247C119.408 111.633 118.332 112.364 117.436 113.682L116.76 110.469C117.42 110.52 118.796 110.692 120.425 111.242ZM113.576 94.4934C113.535 92.7817 114.392 91.2531 115.757 90.6006C117.021 89.989 118.08 89.6836 118.896 89.6836C119.039 89.6836 119.161 89.6836 119.283 89.7037C119.895 89.8058 120.996 90.4575 122.076 92.027C123.666 94.3302 124.277 97.2241 123.727 99.7315C123.156 102.198 121.75 103.624 119.651 103.869C117.674 104.094 115.778 102.85 114.881 100.792C114.763 100.517 114.646 100.223 114.547 99.9461L113.658 95.7218V95.6956C113.617 95.2672 113.577 94.8598 113.577 94.4925L113.576 94.4934ZM111.625 95.9626C111.765 97.464 112.06 98.8704 112.518 100.203L116.037 116.928C115.398 119.528 115.947 122.447 117.53 124.76C117.632 124.902 117.733 125.045 117.856 125.188V125.208C117.856 125.208 117.863 125.215 117.866 125.219L119.721 134.424C119.718 134.431 119.714 134.434 119.71 134.441C119.405 135.134 119.201 135.97 119.098 136.948C119.098 137.131 119.078 141.391 121.157 144.041C121.359 144.383 121.661 144.764 122.041 145.108C122.021 145.229 122.018 145.355 122.044 145.482L122.255 146.489C122.48 147.556 122.275 148.646 121.68 149.56C121.085 150.473 120.167 151.101 119.1 151.326L100.345 155.273C99.9206 153.951 99.4817 152.606 99.0315 151.249L115.408 147.803C118.382 147.178 120.293 144.25 119.667 141.276L104.831 70.7674L106.258 70.4621L111.624 95.9617L111.625 95.9626ZM133.714 3.16132C134.08 3.07931 134.447 3.05925 134.794 3.05925C137.158 3.05925 139.298 4.7099 139.808 7.09515L149.815 53.7898C150.101 55.1351 149.856 56.5004 149.102 57.6625C148.369 58.8037 147.207 59.5993 145.882 59.8838L62.8254 77.6972C60.0737 78.2678 57.343 76.5151 56.7515 73.7433L46.7236 27.0478C46.4384 25.7226 46.7036 24.3371 47.4373 23.196C48.192 22.0339 49.3331 21.2601 50.6784 20.9538L133.714 3.16132ZM21.587 20.214C21.3619 19.1461 21.566 18.0556 22.1619 17.1421C22.7578 16.2287 23.6747 15.6014 24.7426 15.3763L87.7073 2.12836C88.7752 1.90152 89.8657 2.10654 90.7791 2.70329C91.6926 3.29917 92.3199 4.2161 92.545 5.28396L93.4759 9.70461L92.0468 10.0065L91.9796 9.68541C91.355 6.71302 88.4323 4.80412 85.4512 5.42704L28.3178 17.4492C26.8774 17.7529 25.6421 18.5991 24.8368 19.8319C24.0324 21.0646 23.7567 22.5373 24.0594 23.9777L37.55 88.0923C36.7325 85.673 35.7344 83.5042 34.6002 81.6528L21.587 20.214ZM52.7967 231.684C22.5292 226.242 5.18425 215.154 2.12636 213.055C3.34952 205.126 6.58975 199.847 7.81291 198.054C33.2698 210.895 52.7557 215.073 56.7907 215.848C57.5445 223.634 53.9588 229.912 52.7967 231.684ZM61.9538 195.007C61.6947 195.374 55.7883 203.883 55.7255 213.552C55.7133 213.549 55.7037 213.547 55.6914 213.545C49.8007 212.301 32.4759 208.021 10.3002 197.035C10.2985 197.035 10.2967 197.034 10.295 197.033C11.4292 194.823 18.5928 180.306 17.2684 168.55C14.9084 147.605 15.6326 131.69 19.48 119.89C23.9216 106.269 22.6348 88.012 21.4727 78.3428L21.4317 77.9965C21.3357 77.1886 21.7449 76.4505 22.4987 76.0727C23.8693 75.3844 26.5878 75.8494 30.1264 79.203C35.0583 83.8749 38.5663 94.5326 37.7628 106.216C37.7053 106.385 37.6738 106.564 37.714 106.751L37.7201 106.783C37.4618 109.988 36.8956 113.26 35.922 116.507C35.7606 117.046 36.0659 117.613 36.606 117.774C37.1015 117.926 37.6041 117.669 37.8108 117.212C38.0429 122.17 38.5419 128.568 39.6133 130.923C40.0076 131.791 40.5607 132.897 41.2002 134.175C43.3159 138.405 46.5134 144.796 47.6973 150.315L47.8316 150.94C49.3174 157.845 51.0038 165.673 44.3977 171.177C43.9659 171.538 43.9074 172.181 44.2677 172.612C44.4701 172.853 44.7598 172.979 45.0521 172.979C45.2824 172.979 45.5127 172.901 45.7038 172.741C48.5872 170.339 50.086 167.564 50.7595 164.657C51.112 165.048 51.4976 165.412 51.9504 165.707C52.9572 166.364 54.108 166.702 55.2823 166.702C55.7054 166.702 56.132 166.659 56.556 166.569L82.9717 161.012C83.1785 161.712 83.3591 162.319 83.4856 162.736C83.6923 163.42 83.866 164.105 84.0021 164.808C84.276 166.23 84.5735 167.911 84.885 169.756C83.9968 171.037 79.8091 176.973 74.441 183.017C72.3419 182.256 70.7183 182.279 69.5266 183.096C68.0129 184.133 67.4624 186.325 67.8916 189.61C67.8942 189.629 67.8968 189.654 67.8995 189.672C65.372 191.433 64.045 192.707 61.9547 195.006L61.9538 195.007ZM90.6701 209.728C89.1372 206.77 87.696 203.316 86.287 199.941C83.3181 192.831 80.5149 186.113 76.9353 184.163C76.7486 184.061 76.5741 183.98 76.3935 183.887C80.33 179.406 83.599 175.046 85.3561 172.614C87.2746 184.498 89.5752 201.477 90.6701 209.728ZM99.1886 249.039L97.4629 247.708C88.1156 240.492 81.9405 235.725 77.1325 223.707C75.4478 219.495 74.1758 215 73.1995 210.648C74.6705 209.717 76.6064 208.594 78.1977 208.773C78.5284 208.865 78.8861 208.693 79.0012 208.358C79.071 206.333 74.8947 207.695 72.7685 208.642C71.4241 202.137 70.7157 196.116 70.2411 192.07C70.1181 191.025 70.0099 190.107 69.9104 189.348C69.599 186.953 69.8703 185.329 70.6782 184.778C71.5742 184.161 73.449 184.58 75.959 185.952C78.9088 187.56 81.7032 194.254 84.4051 200.727C86.5915 205.964 88.8519 211.382 91.4911 215.054C91.7659 215.434 92.2614 215.577 92.6933 215.406C93.1269 215.235 93.3904 214.791 93.3302 214.327C93.2822 213.967 88.6286 178.046 86.0017 164.421C85.8534 163.651 85.6623 162.899 85.4355 162.146C84.7454 159.864 82.8199 153.34 79.8615 142.039C75.631 125.888 76.3726 120.236 77.7388 118.339C78.1349 117.787 78.6278 117.511 79.29 117.467C83.7028 117.161 85.3098 120.372 92.3216 138.502C99.3299 156.621 105.066 178.587 105.122 178.808C105.263 179.35 105.813 179.678 106.366 179.539C106.91 179.396 107.238 178.84 107.096 178.295C107.081 178.235 106.653 176.6 105.905 173.904C106.177 173.712 106.361 173.405 106.348 173.048C106.346 173.015 106.252 169.684 108.326 167.598C109.537 166.38 111.298 165.793 113.536 165.866C121.086 166.094 123.337 171.839 124.983 176.035L125.198 176.585C125.357 176.985 125.739 177.228 126.145 177.228C126.271 177.228 126.398 177.206 126.521 177.156C127.043 176.949 127.299 176.356 127.093 175.833L126.88 175.291C126.805 175.101 126.725 174.899 126.646 174.698C126.761 174.595 126.861 174.472 126.922 174.319C127.113 173.831 128.956 169.623 134.891 171.871C142.218 174.642 143.273 178.828 143.339 182.557C143.347 182.983 143.617 183.359 144.02 183.5C144.424 183.646 144.871 183.52 145.143 183.19C145.184 183.14 149.38 178.238 156.542 182.051C162.494 185.22 165.085 191.07 164.245 199.585C164.252 199.774 165.088 218.558 163.93 222.865C162.595 227.821 161.496 238.293 163.935 246.827C165.975 253.97 169.864 262.624 171.076 265.25C165.206 268.144 147.19 276.46 122.611 282.126C121.939 280.826 109.59 257.096 99.1903 249.036L99.1886 249.039ZM178.778 281.641C151.893 296.683 131.389 299.109 127.68 299.434C123.624 292.607 122.135 286.634 121.708 284.433C149.733 278.135 169.606 268.31 173.437 266.333C178.961 271.959 178.9 279.623 178.778 281.641Z" fill="#DCE4DD"/>
<path d="M79.2323 86.5653C77.1533 85.2401 74.6869 84.8126 72.2816 85.3421C67.3078 86.4222 64.1496 91.355 65.2498 96.3279C66.2077 100.649 70.0394 103.584 74.2585 103.584C74.9312 103.584 75.5838 103.502 76.2564 103.36C80.5567 102.422 83.5125 98.5901 83.5125 94.3509C83.5125 93.6992 83.4305 93.0466 83.2883 92.374C82.7587 89.9486 81.3113 87.8897 79.2323 86.5653ZM66.2487 96.1246C65.2707 91.7022 68.0834 87.299 72.5058 86.321C73.0973 86.1989 73.688 86.1378 74.2786 86.1378C75.8281 86.1378 77.3566 86.5662 78.6809 87.422C80.5357 88.6042 81.82 90.4389 82.2885 92.579C83.2665 97.0014 80.4537 101.405 76.0313 102.363C71.609 103.341 67.2267 100.548 66.2478 96.1255L66.2487 96.1246Z" fill="#DCE4DD"/>
<path d="M78.9871 89.5207C78.5997 89.2965 78.0902 89.4387 77.887 89.8261L77.2143 91.0082L73.4637 97.6327L69.9783 95.0441L69.693 94.8199C69.3467 94.5547 68.8372 94.6367 68.5519 94.9831C68.2866 95.3504 68.3687 95.8599 68.7351 96.1242L73.2395 99.4875C73.3817 99.6096 73.5448 99.6506 73.7289 99.6506C73.79 99.6506 73.831 99.6506 73.8921 99.6305C74.1163 99.5895 74.3204 99.4473 74.4426 99.2432L79.2933 90.6217C79.5175 90.2344 79.3745 89.7449 78.9871 89.5207Z" fill="#DCE4DD"/>
</g>
<defs>
<clipPath id="clip0_636_11788">
<rect width="180.861" height="301.515" fill="white"/>
</clipPath>
</defs>
</svg>
