<svg width="253" height="242" viewBox="0 0 253 242" fill="none" xmlns="http://www.w3.org/2000/svg">
<path d="M69.5045 146.321V144.164C66.4162 143.993 64.3328 142.228 64.1367 139.532H65.9505C66.0485 141.247 67.3966 142.399 69.5045 142.571V135.757L68.5486 135.512C65.8034 134.85 64.3573 133.306 64.3573 130.904C64.3573 128.183 66.3917 126.296 69.5045 126.051V123.918H70.8036V126.051C73.6468 126.247 75.5096 127.963 75.7547 130.732H73.99C73.8184 128.894 72.6909 127.816 70.8036 127.619V134.36L71.8821 134.63C74.6518 135.316 76.0489 136.86 76.0489 139.213C76.0489 142.032 74.0145 143.919 70.8036 144.164V146.321H69.5045ZM68.8672 133.894L69.5045 134.041V127.644C67.4211 127.865 66.0975 129.09 66.0975 130.879C66.0975 132.424 67.0044 133.428 68.8672 133.894ZM71.5144 136.247L70.8036 136.076V142.571C72.9605 142.35 74.3086 141.125 74.3086 139.311C74.3086 137.718 73.4017 136.688 71.5144 136.247Z" fill="#DCE4DD"/>
<path d="M77.644 123.159C69.9474 119.045 60.3344 121.961 56.2202 129.657C52.1059 137.354 55.0283 146.955 62.7249 151.069C70.4214 155.183 80.0282 152.279 84.1422 144.583C88.2562 136.887 85.3407 127.273 77.644 123.159ZM63.316 149.963C56.2278 146.174 53.5374 137.336 57.3263 130.248C61.1152 123.16 69.9651 120.476 77.0532 124.264C84.1413 128.053 86.8256 136.903 83.0367 143.991C79.2478 151.079 70.4042 153.752 63.316 149.963Z" fill="#DCE4DD" stroke="#DCE4DD" stroke-width="0.177544"/>
<path d="M63.5457 108.195V106.372C60.9361 106.227 59.1757 104.736 59.01 102.458H60.5426C60.6255 103.908 61.7646 104.881 63.5457 105.026V99.2685L62.738 99.0614C60.4184 98.5022 59.1964 97.1974 59.1964 95.1677C59.1964 92.8688 60.9154 91.274 63.5457 91.0669V89.265H64.6434V91.0669C67.0459 91.2326 68.6199 92.6824 68.827 95.0227H67.3358C67.1909 93.4694 66.2382 92.5581 64.6434 92.3924V98.0879L65.5547 98.3158C67.895 98.8957 69.0756 100.2 69.0756 102.189C69.0756 104.57 67.3566 106.165 64.6434 106.372V108.195H63.5457ZM63.0072 97.6944L63.5457 97.8187V92.4131C61.7853 92.5995 60.6669 93.6351 60.6669 95.147C60.6669 96.4518 61.4332 97.3009 63.0072 97.6944ZM65.244 99.6827L64.6434 99.5377V105.026C66.466 104.84 67.6051 103.804 67.6051 102.272C67.6051 100.925 66.8388 100.055 65.244 99.6827Z" fill="#DCE4DD"/>
<path d="M70.4235 88.8334C63.9199 85.3569 55.7972 87.8206 52.3207 94.3242C48.8442 100.828 51.3136 108.94 57.817 112.417C64.3205 115.893 72.438 113.439 75.9143 106.936C79.3905 100.433 76.927 92.3098 70.4235 88.8334ZM58.3165 111.482C52.3272 108.281 50.0538 100.812 53.2554 94.8232C56.4569 88.8339 63.9349 86.5658 69.9242 89.7673C75.9135 92.9689 78.1817 100.447 74.9801 106.436C71.7786 112.425 64.3059 114.684 58.3165 111.482Z" fill="#DCE4DD" stroke="#DCE4DD" stroke-width="0.150021"/>
<path d="M224.615 69.6949V67.8724C222.005 67.7274 220.245 66.2362 220.079 63.958H221.611C221.694 65.4077 222.833 66.3812 224.615 66.5261V60.7685L223.807 60.5614C221.487 60.0022 220.265 58.6974 220.265 56.6677C220.265 54.3688 221.984 52.774 224.615 52.5669V50.765H225.712V52.5669C228.115 52.7326 229.689 54.1824 229.896 56.5227H228.405C228.26 54.9694 227.307 54.0581 225.712 53.8924V59.5879L226.624 59.8158C228.964 60.3957 230.144 61.7005 230.144 63.6887C230.144 66.0705 228.425 67.6652 225.712 67.8724V69.6949H224.615ZM224.076 59.1944L224.615 59.3187V53.9131C222.854 54.0995 221.736 55.1351 221.736 56.647C221.736 57.9518 222.502 58.8009 224.076 59.1944ZM226.313 61.1827L225.712 61.0377V66.5261C227.535 66.3397 228.674 65.3042 228.674 63.7716C228.674 62.4254 227.908 61.5555 226.313 61.1827Z" fill="#DCE4DD"/>
<path d="M231.492 50.3334C224.989 46.8569 216.866 49.3206 213.39 55.8242C209.913 62.3278 212.382 70.4402 218.886 73.9166C225.389 77.393 233.507 74.9393 236.983 68.4361C240.459 61.933 237.996 53.8098 231.492 50.3334ZM219.385 72.9822C213.396 69.7806 211.123 62.3124 214.324 56.3232C217.526 50.3339 225.004 48.0658 230.993 51.2673C236.982 54.4689 239.251 61.9469 236.049 67.9362C232.847 73.9254 225.375 76.1838 219.385 72.9822Z" fill="#DCE4DD" stroke="#DCE4DD" stroke-width="0.150021"/>
<path d="M28.1101 137.003V134.157C24.035 133.93 21.2859 131.602 21.0271 128.044H23.4204C23.5498 130.308 25.3286 131.828 28.1101 132.054V123.063L26.8487 122.74C23.2264 121.866 21.3182 119.829 21.3182 116.659C21.3182 113.069 24.0026 110.579 28.1101 110.256V107.442H29.8242V110.256C33.5759 110.514 36.0339 112.778 36.3574 116.433H34.0287C33.8023 114.007 32.3146 112.584 29.8242 112.325V121.22L31.2473 121.575C34.902 122.481 36.7455 124.519 36.7455 127.623C36.7455 131.343 34.0611 133.833 29.8242 134.157V137.003H28.1101ZM27.2692 120.605L28.1101 120.799V112.358C25.361 112.649 23.6145 114.266 23.6145 116.627C23.6145 118.665 24.8112 119.991 27.2692 120.605ZM30.7622 123.71L29.8242 123.484V132.054C32.6703 131.763 34.4492 130.146 34.4492 127.753C34.4492 125.651 33.2525 124.292 30.7622 123.71Z" fill="#DCE4DD"/>
<path d="M38.5903 105.884C28.4344 100.455 15.7499 104.303 10.3211 114.459C4.8922 124.615 8.74836 137.283 18.9041 142.712C29.0599 148.141 41.7362 144.309 47.1648 134.153C52.5932 123.998 48.7462 111.313 38.5903 105.884ZM19.6841 141.253C10.3312 136.253 6.78112 124.591 11.7806 115.238C16.7802 105.885 28.4578 102.343 37.8107 107.343C47.1635 112.342 50.7055 124.02 45.706 133.373C40.7065 142.725 29.0371 146.252 19.6841 141.253Z" fill="#DCE4DD" stroke="#DCE4DD" stroke-width="0.234273"/>
<path d="M206.682 199.126C206.682 194.765 203.136 191.219 198.774 191.219C194.413 191.219 190.867 194.765 190.867 199.126C190.867 203.488 194.413 207.033 198.774 207.033C203.136 207.033 206.682 203.487 206.682 199.126ZM204.785 199.126C204.785 202.445 202.092 205.137 198.774 205.137C195.456 205.137 192.763 202.444 192.763 199.126C192.763 195.808 195.455 193.115 198.774 193.115C202.093 193.115 204.785 195.808 204.785 199.126Z" fill="#DCE4DD"/>
<path d="M114.149 165.508C114.515 165.508 114.812 165.804 114.812 166.171V168.994C114.812 169.361 114.515 169.657 114.149 169.657C113.782 169.657 113.486 169.361 113.486 168.994V166.171C113.486 165.804 113.782 165.508 114.149 165.508Z" fill="#DCE4DD"/>
<path d="M116.045 162.115H114.812V163.348C114.812 163.714 114.515 164.011 114.149 164.011C113.782 164.011 113.486 163.714 113.486 163.348V161.452C113.486 161.085 113.782 160.789 114.149 160.789H116.045C116.411 160.789 116.708 161.085 116.708 161.452C116.708 161.818 116.411 162.115 116.045 162.115Z" fill="#DCE4DD"/>
<path d="M210.816 160.785H214.589C214.968 160.785 215.253 161.089 215.253 161.449C215.253 161.829 214.968 162.113 214.589 162.113H210.816C210.436 162.113 210.152 161.829 210.152 161.449C210.152 161.07 210.436 160.785 210.816 160.785Z" fill="#DCE4DD"/>
<path d="M203.231 160.785H207.023C207.384 160.785 207.687 161.089 207.687 161.449C207.687 161.829 207.384 162.113 207.023 162.113H203.231C202.852 162.113 202.567 161.829 202.567 161.449C202.567 161.07 202.852 160.785 203.231 160.785Z" fill="#DCE4DD"/>
<path d="M195.645 160.785H199.438C199.798 160.785 200.101 161.089 200.101 161.449C200.101 161.829 199.798 162.113 199.438 162.113H195.645C195.285 162.113 194.982 161.829 194.982 161.449C194.982 161.07 195.286 160.785 195.645 160.785Z" fill="#DCE4DD"/>
<path d="M188.061 160.785H191.853C192.213 160.785 192.517 161.089 192.517 161.449C192.517 161.829 192.213 162.113 191.853 162.113H188.061C187.7 162.113 187.397 161.829 187.397 161.449C187.397 161.07 187.701 160.785 188.061 160.785Z" fill="#DCE4DD"/>
<path d="M169.116 162.113H165.324C164.964 162.113 164.661 161.829 164.661 161.449C164.661 161.07 164.964 160.785 165.324 160.785H169.116C169.477 160.785 169.78 161.089 169.78 161.449C169.78 161.81 169.477 162.113 169.116 162.113Z" fill="#DCE4DD"/>
<path d="M153.946 162.113H150.154C149.794 162.113 149.49 161.829 149.49 161.449C149.49 161.07 149.794 160.785 150.154 160.785H153.946C154.326 160.785 154.61 161.089 154.61 161.449C154.61 161.829 154.326 162.113 153.946 162.113Z" fill="#DCE4DD"/>
<path d="M146.361 162.113H142.569C142.208 162.113 141.924 161.829 141.924 161.449C141.924 161.07 142.208 160.785 142.569 160.785H146.361C146.74 160.785 147.024 161.089 147.024 161.449C147.024 161.829 146.74 162.113 146.361 162.113Z" fill="#DCE4DD"/>
<path d="M161.532 162.113H157.739C157.379 162.113 157.076 161.829 157.076 161.449C157.076 161.07 157.38 160.785 157.739 160.785H161.532C161.892 160.785 162.195 161.089 162.195 161.449C162.195 161.829 161.892 162.113 161.532 162.113Z" fill="#DCE4DD"/>
<path d="M123.625 162.113H119.833C119.472 162.113 119.169 161.829 119.169 161.449C119.169 161.07 119.472 160.785 119.833 160.785H123.625C123.985 160.785 124.288 161.089 124.288 161.449C124.288 161.829 123.985 162.113 123.625 162.113Z" fill="#DCE4DD"/>
<path d="M176.702 162.113H172.909C172.53 162.113 172.246 161.829 172.246 161.449C172.246 161.07 172.53 160.785 172.909 160.785H176.702C177.062 160.785 177.346 161.089 177.346 161.449C177.346 161.829 177.062 162.113 176.702 162.113Z" fill="#DCE4DD"/>
<path d="M131.21 162.113H127.417C127.057 162.113 126.754 161.829 126.754 161.449C126.754 161.07 127.057 160.785 127.417 160.785H131.21C131.57 160.785 131.873 161.089 131.873 161.449C131.873 161.829 131.569 162.113 131.21 162.113Z" fill="#DCE4DD"/>
<path d="M184.268 162.113H180.475C180.115 162.113 179.812 161.829 179.812 161.449C179.812 161.07 180.116 160.785 180.475 160.785H184.268C184.647 160.785 184.931 161.089 184.931 161.449C184.931 161.81 184.647 162.113 184.268 162.113Z" fill="#DCE4DD"/>
<path d="M138.795 162.113H135.003C134.623 162.113 134.339 161.829 134.339 161.449C134.339 161.07 134.623 160.785 135.003 160.785H138.795C139.155 160.785 139.459 161.089 139.459 161.449C139.459 161.829 139.155 162.113 138.795 162.113Z" fill="#DCE4DD"/>
<path d="M218.389 160.789H220.285C220.652 160.789 220.948 161.085 220.948 161.452V163.348C220.948 163.714 220.652 164.011 220.285 164.011C219.919 164.011 219.622 163.714 219.622 163.348V162.115H218.389C218.022 162.115 217.726 161.818 217.726 161.452C217.726 161.085 218.022 160.789 218.389 160.789Z" fill="#DCE4DD"/>
<path d="M220.278 166.926C220.657 166.926 220.942 167.211 220.942 167.59V171.819C220.942 172.198 220.657 172.482 220.278 172.482C219.918 172.482 219.615 172.198 219.615 171.819V167.59C219.615 167.211 219.918 166.926 220.278 166.926Z" fill="#DCE4DD"/>
<path d="M220.278 175.402C220.657 175.402 220.942 175.706 220.942 176.066V180.295C220.942 180.674 220.657 180.959 220.278 180.959C219.899 180.959 219.615 180.674 219.615 180.295V176.066C219.615 175.705 219.918 175.402 220.278 175.402Z" fill="#DCE4DD"/>
<path d="M220.278 222.527C219.918 222.527 219.615 222.243 219.615 221.864V217.597C219.615 217.237 219.918 216.934 220.278 216.934C220.657 216.934 220.942 217.237 220.942 217.597V221.864C220.942 222.243 220.657 222.527 220.278 222.527Z" fill="#DCE4DD"/>
<path d="M220.278 231.077C219.918 231.077 219.615 230.773 219.615 230.414V226.128C219.615 225.768 219.918 225.465 220.278 225.465C220.657 225.465 220.942 225.768 220.942 226.128V230.414C220.942 230.774 220.657 231.077 220.278 231.077Z" fill="#DCE4DD"/>
<path d="M218.389 235.912H219.622V234.678C219.622 234.312 219.919 234.016 220.285 234.016C220.652 234.016 220.948 234.312 220.948 234.678V236.575C220.948 236.941 220.652 237.237 220.285 237.237H218.389C218.022 237.237 217.726 236.941 217.726 236.575C217.726 236.208 218.022 235.912 218.389 235.912Z" fill="#DCE4DD"/>
<path d="M142.569 235.914H146.361C146.74 235.914 147.024 236.198 147.024 236.578C147.024 236.957 146.74 237.241 146.361 237.241H142.569C142.208 237.241 141.924 236.937 141.924 236.578C141.924 236.198 142.208 235.914 142.569 235.914Z" fill="#DCE4DD"/>
<path d="M150.154 235.914H153.946C154.326 235.914 154.61 236.198 154.61 236.578C154.61 236.957 154.326 237.241 153.946 237.241H150.154C149.794 237.241 149.49 236.937 149.49 236.578C149.49 236.198 149.794 235.914 150.154 235.914Z" fill="#DCE4DD"/>
<path d="M165.324 235.914H169.116C169.477 235.914 169.78 236.198 169.78 236.578C169.78 236.957 169.477 237.241 169.116 237.241H165.324C164.964 237.241 164.661 236.937 164.661 236.578C164.661 236.198 164.964 235.914 165.324 235.914Z" fill="#DCE4DD"/>
<path d="M157.739 235.914H161.531C161.891 235.914 162.195 236.198 162.195 236.578C162.195 236.957 161.891 237.241 161.531 237.241H157.739C157.378 237.241 157.075 236.937 157.075 236.578C157.075 236.198 157.379 235.914 157.739 235.914Z" fill="#DCE4DD"/>
<path d="M127.417 235.914H131.21C131.57 235.914 131.873 236.198 131.873 236.578C131.873 236.957 131.569 237.241 131.21 237.241H127.417C127.057 237.241 126.754 236.937 126.754 236.578C126.754 236.198 127.057 235.914 127.417 235.914Z" fill="#DCE4DD"/>
<path d="M135.002 235.914H138.794C139.155 235.914 139.458 236.198 139.458 236.578C139.458 236.957 139.154 237.241 138.794 237.241H135.002C134.623 237.241 134.339 236.937 134.339 236.578C134.339 236.198 134.623 235.914 135.002 235.914Z" fill="#DCE4DD"/>
<path d="M210.816 235.914H214.589C214.968 235.914 215.253 236.198 215.253 236.578C215.253 236.957 214.968 237.241 214.589 237.241H210.816C210.436 237.241 210.152 236.937 210.152 236.578C210.152 236.198 210.436 235.914 210.816 235.914Z" fill="#DCE4DD"/>
<path d="M172.909 235.914H176.701C177.061 235.914 177.346 236.198 177.346 236.578C177.346 236.957 177.061 237.241 176.701 237.241H172.909C172.53 237.241 172.245 236.937 172.245 236.578C172.245 236.198 172.53 235.914 172.909 235.914Z" fill="#DCE4DD"/>
<path d="M195.645 235.914H199.438C199.798 235.914 200.101 236.198 200.101 236.578C200.101 236.957 199.798 237.241 199.438 237.241H195.645C195.285 237.241 194.982 236.937 194.982 236.578C194.982 236.198 195.286 235.914 195.645 235.914Z" fill="#DCE4DD"/>
<path d="M119.832 235.914H123.624C123.985 235.914 124.288 236.198 124.288 236.578C124.288 236.957 123.984 237.241 123.624 237.241H119.832C119.472 237.241 119.168 236.937 119.168 236.578C119.168 236.198 119.472 235.914 119.832 235.914Z" fill="#DCE4DD"/>
<path d="M203.231 235.914H207.023C207.384 235.914 207.687 236.198 207.687 236.578C207.687 236.957 207.384 237.241 207.023 237.241H203.231C202.852 237.241 202.567 236.937 202.567 236.578C202.567 236.198 202.852 235.914 203.231 235.914Z" fill="#DCE4DD"/>
<path d="M188.061 235.914H191.853C192.213 235.914 192.517 236.198 192.517 236.578C192.517 236.957 192.213 237.241 191.853 237.241H188.061C187.7 237.241 187.397 236.937 187.397 236.578C187.397 236.198 187.701 235.914 188.061 235.914Z" fill="#DCE4DD"/>
<path d="M180.475 235.914H184.268C184.647 235.914 184.931 236.198 184.931 236.578C184.931 236.957 184.647 237.241 184.268 237.241H180.475C180.115 237.241 179.812 236.937 179.812 236.578C179.812 236.198 180.116 235.914 180.475 235.914Z" fill="#DCE4DD"/>
<path d="M216.675 208H218.382C218.742 208 219.046 208.303 219.046 208.664C219.046 209.024 218.742 209.328 218.382 209.328H216.675C216.296 209.328 216.012 209.024 216.012 208.664C216.012 208.303 216.296 208 216.675 208Z" fill="#DCE4DD"/>
<path d="M199.609 208H201.316C201.676 208 201.979 208.303 201.979 208.664C201.979 209.024 201.676 209.328 201.316 209.328H199.609C199.23 209.328 198.945 209.024 198.945 208.664C198.945 208.303 199.23 208 199.609 208Z" fill="#DCE4DD"/>
<path d="M213.262 208H214.969C215.329 208 215.633 208.303 215.633 208.664C215.633 209.024 215.329 209.328 214.969 209.328H213.262C212.883 209.328 212.599 209.024 212.599 208.664C212.599 208.303 212.883 208 213.262 208Z" fill="#DCE4DD"/>
<path d="M213.641 189.796H211.934C211.574 189.796 211.271 189.493 211.271 189.132C211.271 188.772 211.574 188.469 211.934 188.469H213.641C214.002 188.469 214.305 188.772 214.305 189.132C214.305 189.493 214.002 189.796 213.641 189.796Z" fill="#DCE4DD"/>
<path d="M210.228 189.796H208.521C208.161 189.796 207.858 189.493 207.858 189.132C207.858 188.772 208.161 188.469 208.521 188.469H210.228C210.589 188.469 210.892 188.772 210.892 189.132C210.892 189.493 210.589 189.796 210.228 189.796Z" fill="#DCE4DD"/>
<path d="M222.402 208.913C222.307 209.16 222.061 209.33 221.795 209.33H220.088C219.709 209.33 219.425 209.026 219.425 208.666C219.425 208.306 219.709 208.002 220.088 208.002H221.795C221.985 208.002 222.174 208.097 222.288 208.229C222.364 208.059 222.516 207.926 222.705 207.85C223.142 207.717 223.559 207.471 223.881 207.148C224.147 206.883 224.564 206.883 224.83 207.148C225.076 207.414 225.076 207.831 224.83 208.097C224.337 208.571 223.749 208.912 223.104 209.121C222.857 209.197 222.573 209.121 222.402 208.912V208.913Z" fill="#DCE4DD"/>
<path d="M206.814 189.796H205.107C204.747 189.796 204.444 189.493 204.444 189.132C204.444 188.772 204.747 188.469 205.107 188.469H206.814C207.175 188.469 207.478 188.772 207.478 189.132C207.478 189.493 207.174 189.796 206.814 189.796Z" fill="#DCE4DD"/>
<path d="M199.988 189.796H198.281C197.921 189.796 197.618 189.493 197.618 189.132C197.618 188.772 197.921 188.469 198.281 188.469H199.988C200.348 188.469 200.652 188.772 200.652 189.132C200.652 189.493 200.348 189.796 199.988 189.796Z" fill="#DCE4DD"/>
<path d="M203.401 189.796H201.694C201.334 189.796 201.031 189.493 201.031 189.132C201.031 188.772 201.335 188.469 201.694 188.469H203.401C203.762 188.469 204.065 188.772 204.065 189.132C204.065 189.493 203.761 189.796 203.401 189.796Z" fill="#DCE4DD"/>
<path d="M217.054 189.796H215.348C214.987 189.796 214.684 189.493 214.684 189.132C214.684 188.772 214.988 188.469 215.348 188.469H217.054C217.415 188.469 217.718 188.772 217.718 189.132C217.718 189.493 217.414 189.796 217.054 189.796Z" fill="#DCE4DD"/>
<path d="M225.455 203.452C225.076 203.452 224.791 203.168 224.791 202.788V201.081C224.791 200.721 225.076 200.418 225.455 200.418C225.834 200.418 226.118 200.721 226.118 201.081V202.788C226.118 203.168 225.815 203.452 225.455 203.452Z" fill="#DCE4DD"/>
<path d="M225.455 200.038C225.076 200.038 224.791 199.754 224.791 199.374V197.667C224.791 197.307 225.076 197.004 225.455 197.004C225.815 197.004 226.118 197.307 226.118 197.667V199.374C226.118 199.754 225.815 200.038 225.455 200.038Z" fill="#DCE4DD"/>
<path d="M220.468 189.796H218.761C218.4 189.796 218.097 189.493 218.097 189.132C218.097 188.772 218.401 188.469 218.761 188.469H220.468C220.828 188.469 221.131 188.772 221.131 189.132C221.131 189.493 220.827 189.796 220.468 189.796Z" fill="#DCE4DD"/>
<path d="M224.621 205.971C224.735 205.648 224.791 205.326 224.791 205.004V204.492C224.791 204.131 225.076 203.828 225.455 203.828C225.815 203.828 226.118 204.132 226.118 204.492V205.004C226.118 205.478 226.042 205.952 225.891 206.388C225.796 206.672 225.53 206.843 225.246 206.843C225.189 206.843 225.113 206.824 225.037 206.805C224.696 206.692 224.506 206.312 224.62 205.971H224.621Z" fill="#DCE4DD"/>
<path d="M225.455 196.624C225.076 196.624 224.791 196.339 224.791 195.96V194.254C224.791 193.894 225.076 193.59 225.455 193.59C225.815 193.59 226.118 193.894 226.118 194.254V195.96C226.118 196.339 225.815 196.624 225.455 196.624Z" fill="#DCE4DD"/>
<path d="M225.474 193.21H225.436C225.094 193.21 224.791 192.945 224.772 192.603C224.754 192.129 224.602 191.674 224.374 191.276C224.185 190.954 224.279 190.556 224.602 190.366C224.925 190.176 225.323 190.29 225.512 190.594C225.854 191.182 226.062 191.846 226.1 192.509C226.119 192.869 225.854 193.192 225.474 193.211L225.474 193.21Z" fill="#DCE4DD"/>
<path d="M223.767 190.385C223.635 190.385 223.521 190.347 223.407 190.271C223.009 190.024 222.572 189.873 222.099 189.816C221.739 189.778 221.473 189.455 221.511 189.095C221.549 188.716 221.89 188.45 222.251 188.488C222.914 188.564 223.559 188.791 224.128 189.151C224.432 189.36 224.526 189.758 224.318 190.08C224.204 190.27 223.976 190.384 223.767 190.384V190.385Z" fill="#DCE4DD"/>
<path d="M209.849 208H211.556C211.916 208 212.219 208.303 212.219 208.664C212.219 209.024 211.916 209.328 211.556 209.328H209.849C209.47 209.328 209.185 209.024 209.185 208.664C209.185 208.303 209.47 208 209.849 208Z" fill="#DCE4DD"/>
<path d="M196.575 189.796H194.868C194.508 189.796 194.205 189.493 194.205 189.132C194.205 188.772 194.508 188.469 194.868 188.469H196.575C196.935 188.469 197.238 188.772 197.238 189.132C197.238 189.493 196.935 189.796 196.575 189.796Z" fill="#DCE4DD"/>
<path d="M187.454 204.871C187.814 204.833 188.156 205.08 188.212 205.44C188.27 205.896 188.459 206.35 188.724 206.729C188.933 207.014 188.857 207.431 188.554 207.64C188.44 207.735 188.307 207.773 188.175 207.773C187.966 207.773 187.758 207.659 187.624 207.489C187.245 206.938 186.999 206.294 186.904 205.63C186.846 205.27 187.093 204.928 187.453 204.872L187.454 204.871Z" fill="#DCE4DD"/>
<path d="M192.782 208H194.489C194.849 208 195.152 208.303 195.152 208.664C195.152 209.024 194.848 209.328 194.489 209.328H192.782C192.403 209.328 192.118 209.024 192.118 208.664C192.118 208.303 192.403 208 192.782 208Z" fill="#DCE4DD"/>
<path d="M187.51 201.457C187.871 201.457 188.174 201.761 188.174 202.121V203.827C188.174 204.188 187.87 204.491 187.51 204.491C187.151 204.491 186.847 204.188 186.847 203.827V202.121C186.847 201.76 187.15 201.457 187.51 201.457Z" fill="#DCE4DD"/>
<path d="M203.022 208H204.729C205.089 208 205.392 208.303 205.392 208.664C205.392 209.024 205.089 209.328 204.729 209.328H203.022C202.643 209.328 202.359 209.024 202.359 208.664C202.359 208.303 202.643 208 203.022 208Z" fill="#DCE4DD"/>
<path d="M196.195 208H197.902C198.262 208 198.565 208.303 198.565 208.664C198.565 209.024 198.262 209.328 197.902 209.328H196.195C195.816 209.328 195.532 209.024 195.532 208.664C195.532 208.303 195.816 208 196.195 208Z" fill="#DCE4DD"/>
<path d="M187.51 194.633C187.871 194.633 188.174 194.936 188.174 195.296V197.003C188.174 197.364 187.87 197.667 187.51 197.667C187.151 197.667 186.847 197.363 186.847 197.003V195.296C186.847 194.936 187.15 194.633 187.51 194.633Z" fill="#DCE4DD"/>
<path d="M190.032 190.023C189.615 190.193 189.217 190.478 188.913 190.819C188.781 190.97 188.591 191.046 188.401 191.046C188.25 191.046 188.098 191.009 187.985 190.895C187.7 190.648 187.662 190.231 187.908 189.966C188.344 189.454 188.913 189.055 189.539 188.79C189.881 188.657 190.26 188.809 190.393 189.15C190.544 189.492 190.374 189.89 190.032 190.023Z" fill="#DCE4DD"/>
<path d="M191.739 208.684C191.72 209.045 191.435 209.329 191.076 209.329H191.057C190.375 209.31 189.71 209.139 189.123 208.817C188.8 208.646 188.686 208.229 188.858 207.907C189.028 207.584 189.427 207.471 189.749 207.641C190.166 207.869 190.621 207.983 191.095 208.002C191.456 208.002 191.74 208.324 191.74 208.684H191.739Z" fill="#DCE4DD"/>
<path d="M193.161 189.796H191.454C191.094 189.796 190.791 189.493 190.791 189.132C190.791 188.772 191.094 188.469 191.454 188.469H193.161C193.522 188.469 193.825 188.772 193.825 189.132C193.825 189.493 193.522 189.796 193.161 189.796Z" fill="#DCE4DD"/>
<path d="M206.435 208H208.142C208.502 208 208.805 208.303 208.805 208.664C208.805 209.024 208.502 209.328 208.142 209.328H206.435C206.056 209.328 205.772 209.024 205.772 208.664C205.772 208.303 206.056 208 206.435 208Z" fill="#DCE4DD"/>
<path d="M187.51 198.047C187.871 198.047 188.174 198.35 188.174 198.71V200.417C188.174 200.778 187.87 201.081 187.51 201.081C187.151 201.081 186.847 200.778 186.847 200.417V198.71C186.847 198.35 187.15 198.047 187.51 198.047Z" fill="#DCE4DD"/>
<path d="M188.269 192.054C188.212 192.3 188.174 192.547 188.174 192.794V193.59C188.174 193.95 187.87 194.254 187.51 194.254C187.151 194.254 186.847 193.95 186.847 193.59V192.794C186.847 192.433 186.885 192.073 186.98 191.731C187.075 191.371 187.435 191.162 187.776 191.238C188.136 191.333 188.364 191.694 188.269 192.053V192.054Z" fill="#DCE4DD"/>
<path d="M138.624 126.688L133.921 116.961C133.484 116.05 132.385 115.672 131.474 116.126L126.582 118.497C126.146 118.706 125.805 119.065 125.653 119.539C125.483 119.995 125.52 120.488 125.729 120.943L130.451 130.671C130.754 131.315 131.418 131.695 132.101 131.695C132.366 131.695 132.632 131.638 132.897 131.505L137.789 129.135C138.225 128.926 138.548 128.566 138.718 128.092C138.87 127.637 138.851 127.125 138.623 126.689L138.624 126.688ZM137.828 127.788C137.752 128.016 137.581 128.186 137.372 128.281L132.48 130.652C132.044 130.879 131.513 130.689 131.285 130.254L126.582 120.526C126.487 120.317 126.468 120.07 126.544 119.843C126.62 119.616 126.772 119.445 127 119.35L131.892 116.98C132.006 116.904 132.139 116.885 132.271 116.885C132.594 116.885 132.916 117.074 133.067 117.378L137.789 127.105C137.884 127.314 137.903 127.561 137.827 127.788H137.828Z" fill="#DCE4DD"/>
<path d="M115.243 135.64C115.338 135.337 115.32 135.014 115.187 134.711L111.679 127.467C111.527 127.183 111.281 126.955 110.977 126.86C110.674 126.746 110.332 126.765 110.048 126.898L108.36 127.713C107.772 128.017 107.506 128.737 107.81 129.344L111.318 136.587C111.527 137.024 111.963 137.27 112.418 137.27C112.589 137.27 112.779 137.233 112.949 137.157L114.618 136.342C114.902 136.209 115.13 135.962 115.243 135.64ZM114.333 135.337C114.314 135.413 114.275 135.45 114.2 135.488L112.531 136.304C112.399 136.38 112.228 136.304 112.152 136.171L108.663 128.946C108.587 128.795 108.644 128.642 108.777 128.567L110.464 127.771C110.502 127.752 110.54 127.733 110.578 127.733C110.597 127.733 110.635 127.733 110.654 127.752C110.73 127.771 110.787 127.828 110.825 127.885L114.333 135.128C114.37 135.185 114.37 135.261 114.333 135.337V135.337Z" fill="#DCE4DD"/>
<path d="M120.458 145.596L116.95 138.371C116.817 138.067 116.57 137.859 116.248 137.745C115.944 137.631 115.622 137.65 115.319 137.802L113.65 138.617C113.043 138.902 112.797 139.641 113.081 140.248L116.589 147.473C116.798 147.91 117.234 148.175 117.689 148.175C117.86 148.175 118.05 148.137 118.22 148.042L119.889 147.246C120.192 147.095 120.4 146.848 120.514 146.544C120.628 146.222 120.609 145.9 120.457 145.596H120.458ZM119.624 146.222C119.605 146.298 119.548 146.354 119.472 146.392L117.804 147.188C117.671 147.264 117.52 147.207 117.443 147.074L113.935 139.831C113.879 139.698 113.935 139.527 114.068 139.47L115.737 138.655C115.774 138.636 115.813 138.617 115.85 138.617C115.888 138.617 115.908 138.636 115.945 138.636C116.021 138.674 116.059 138.712 116.097 138.788L119.605 146.013C119.643 146.088 119.643 146.164 119.624 146.222Z" fill="#DCE4DD"/>
<path d="M199.097 119.521C199.704 117.643 198.68 115.633 196.822 115.008C195.912 114.704 194.944 114.78 194.091 115.216C193.237 115.633 192.612 116.373 192.308 117.283C192.005 118.193 192.081 119.16 192.517 120.014C192.934 120.848 193.674 121.493 194.585 121.796C194.964 121.91 195.324 121.967 195.703 121.967C197.201 121.967 198.605 121.018 199.098 119.52L199.097 119.521ZM198.186 119.218C197.731 120.602 196.252 121.342 194.887 120.886C194.224 120.677 193.673 120.204 193.37 119.577C193.047 118.952 192.991 118.25 193.218 117.586C193.427 116.904 193.901 116.372 194.527 116.05C194.887 115.88 195.304 115.785 195.702 115.785C195.967 115.785 196.252 115.823 196.517 115.918C197.901 116.354 198.641 117.852 198.186 119.217L198.186 119.218Z" fill="#DCE4DD"/>
<path d="M183.187 140.766L184.236 141.163C183.951 143.226 185.097 145.295 187.117 146.078C189.165 146.87 191.437 146.087 192.603 144.326L197.579 146.208C196.81 147.039 195.573 147.337 194.487 146.842C194.011 146.625 193.448 146.835 193.233 147.313C193.014 147.791 193.224 148.346 193.703 148.569C195.787 149.518 198.205 148.762 199.429 146.907L200.049 147.141C200.537 147.326 201.085 147.079 201.271 146.59C201.406 146.229 201.309 145.839 201.054 145.584C200.961 145.491 200.849 145.417 200.718 145.367L200.121 145.141C200.254 144.353 200.198 143.544 199.91 142.776C199.676 142.151 199.317 141.596 198.859 141.137C198.474 140.752 198.021 140.436 197.51 140.203C195.391 139.239 192.927 140.04 191.725 141.967L186.714 140.072C187.436 139.209 188.647 138.849 189.757 139.279C189.865 139.32 189.971 139.369 190.071 139.424C190.533 139.672 191.109 139.5 191.355 139.039C191.559 138.661 191.48 138.207 191.192 137.919C191.128 137.855 191.054 137.8 190.971 137.755C190.798 137.663 190.618 137.578 190.436 137.509C188.345 136.698 186.019 137.535 184.877 139.378L183.857 138.992C183.368 138.808 182.82 139.054 182.635 139.543C182.449 140.036 182.696 140.579 183.187 140.766L183.187 140.766ZM187.801 144.308C186.755 143.903 186.107 142.915 186.079 141.859L190.75 143.625C190.019 144.409 188.86 144.718 187.801 144.308H187.801ZM196.724 141.928C197.734 142.391 198.327 143.405 198.303 144.454L193.55 142.657C194.31 141.754 195.599 141.417 196.724 141.928Z" fill="#DCE4DD"/>
<path d="M158.206 141.538C157.986 141.828 157.813 142.138 157.619 142.439L155.887 141.142L154.524 142.962L156.534 144.467C155.939 145.864 155.578 147.307 155.55 148.72C155.5 151.293 156.439 153.444 158.197 154.776C160.319 156.386 163.338 156.506 166.265 155.097L165.28 153.048C163.13 154.078 161.002 154.047 159.57 152.963C158.409 152.082 157.789 150.591 157.826 148.764C157.844 147.81 158.044 146.828 158.397 145.863L163.009 149.318L164.372 147.498L159.436 143.8C159.623 143.502 159.799 143.2 160.015 142.913C160.176 142.701 160.36 142.521 160.532 142.323L165.422 145.986L166.785 144.166L162.199 140.73C163.098 140.047 164.064 139.525 165.061 139.225C166.806 138.699 168.409 138.894 169.575 139.776C171.159 140.979 171.719 143.354 171.036 145.974L173.236 146.55C174.158 143.022 173.282 139.732 170.949 137.963C169.81 137.097 168.43 136.656 166.929 136.656C166.118 136.656 165.27 136.786 164.405 137.045C162.962 137.48 161.586 138.289 160.34 139.336L158.301 137.809L156.938 139.629L158.713 140.958C158.546 141.155 158.362 141.329 158.205 141.536L158.206 141.538Z" fill="#DCE4DD"/>
<path d="M26.0798 191.2C26.3075 221.237 34.4614 236.825 34.8029 237.469C34.9545 237.773 35.2771 237.963 35.618 237.963C35.9784 237.981 36.3199 237.981 36.6796 237.981C45.4593 237.981 50.8635 234.947 51.0912 234.815C51.4705 234.587 51.6604 234.132 51.5277 233.696C51.49 233.583 51.4523 233.47 51.4145 233.357C56.249 232.256 62.9459 231.231 69.0837 232.092C72.8336 232.614 76.3336 233.15 79.7373 233.672C87.9061 234.922 95.6208 236.103 104.92 236.794C105.75 236.855 106.621 236.885 107.524 236.885C108.377 236.885 109.262 236.857 110.171 236.807V237.359C110.171 239.389 111.821 241.039 113.85 241.039H220.846C222.876 241.039 224.526 239.389 224.526 237.359V211.927C227.199 210.998 229.134 208.457 229.134 205.461V192.566C229.134 189.57 227.2 187.029 224.526 186.1V160.891C224.526 158.862 222.876 157.212 220.846 157.212H218.669C221.363 148.713 228.512 130.67 241.858 123.598C242.161 123.427 242.351 123.124 242.37 122.783C242.37 122.441 242.199 122.119 241.914 121.948L228.678 113.794C231.048 108.029 234.12 103.44 237.799 100.141C238.065 99.9139 238.178 99.5724 238.103 99.2309C238.027 98.9089 237.78 98.624 237.458 98.529L203.553 87.9481L203.525 87.9393C204.837 87.1815 205.489 85.7347 205.159 84.1861C204.479 81.0148 201.629 66.2064 201.142 56.9801C200.658 47.7531 199.903 45.2837 196.099 40.4641C194.803 38.8232 192.582 34.4246 190.121 29.405C194.56 31.2722 200.158 31.2722 201.52 31.2365C205.464 33.4708 219.977 35.5893 222.306 35.918C228.488 38.9357 235.454 40.2849 240.927 40.2856C243.523 40.2856 245.784 39.9818 247.465 39.4079C250.953 38.2197 252.123 35.9402 252.058 34.203C251.986 32.319 250.584 30.7502 248.486 30.2086C247.938 30.0671 247.279 29.8967 246.541 29.6987C247.43 28.9766 248.383 27.9527 248.441 26.8056C248.471 26.2364 248.297 25.4099 247.304 24.7053C246.054 23.8175 243.93 23.7589 240.715 23.67C237.568 23.5831 233.554 23.4686 229.069 22.479C230.086 21.7037 231.036 20.6671 230.848 19.5866C230.594 18.1202 228.639 17.8211 227.996 17.7228C226.031 17.4217 224.545 17.3651 222.661 17.293C219.913 17.1873 216.493 17.0559 209.71 16.0866C209.654 16.0785 209.602 16.094 209.547 16.0954C196.273 12.2693 180.701 8.8636 179.74 8.65411C179.619 8.62852 179.501 8.63054 179.387 8.64873C178.536 7.26313 177.722 6.0547 176.971 5.1157C171.095 -2.22989 166.866 -1.03223 146.557 4.70615L142.809 5.7637C122.053 11.6025 93.6128 10.4162 88.4119 10.1367C88.486 9.8767 88.5238 9.74467 88.5238 9.72581C88.6753 9.23274 88.3911 8.70194 87.8791 8.55038C78.8152 5.81961 70.6417 8.26612 70.3002 8.37996C69.9587 8.47494 69.6933 8.77806 69.6556 9.13843C64.8771 41.2044 70.6983 55.218 70.9449 55.7871C71.0587 56.0903 71.3241 56.2991 71.6467 56.3557C74.1498 56.811 76.4253 56.9814 78.4164 56.9814C84.3515 56.9814 87.8219 55.4456 88.0307 55.3507C88.4099 55.1796 88.6376 54.7626 88.5615 54.3456C88.5244 54.0472 88.4692 53.7684 88.4308 53.4888C90.6725 53.2531 98.8291 53.5548 105.247 55.0482C108.134 55.7198 110.769 57.2462 113.821 59.015C117.84 61.3437 122.396 63.9828 128.823 65.3805L130.645 65.7739C141.153 68.0433 153.062 70.6144 165.832 77.9445C172.098 81.5408 176.293 84.7438 179.662 87.3176C182.934 89.816 185.498 91.7176 188.48 92.9664C188.295 93.2945 188.098 93.6609 187.908 94.0226L187.889 94.0165L185.5 93.2581C185.197 93.1631 184.855 93.2204 184.609 93.4285C184.153 93.8077 173.859 102.719 170.843 128.559C169.61 128.122 168.325 127.801 166.998 127.619C162.86 127.054 158.759 127.846 155.17 129.823L145.501 109.876C144.851 108.534 143.718 107.526 142.309 107.037C140.899 106.55 139.384 106.636 138.044 107.286L105.648 122.986C102.877 124.328 101.717 127.674 103.057 130.444L112.816 150.579C105.173 150.67 90.5742 159.45 87.7707 161.931C87.1153 162.509 86.1689 163.279 85.0224 164.212C80.6555 167.764 73.3483 173.712 68.1023 180.514C65.2402 184.221 56.5501 187.218 43.6015 188.987V188.945C43.6203 188.471 43.26 188.054 42.7864 187.977C34.0822 186.782 26.9144 190.196 26.6113 190.348C26.2886 190.499 26.0798 190.84 26.0798 191.2ZM153.547 130.824C153.294 130.998 153.034 131.157 152.789 131.343C152 131.941 151.29 132.605 150.62 133.295L140.86 113.154C140.513 112.437 139.651 112.142 138.936 112.485L137.376 113.24C136.664 113.586 136.363 114.449 136.708 115.164L147.532 137.496C144.25 143.574 144.401 151.171 148.402 157.211H139.349L122.762 122.983C122.483 122.405 121.994 121.97 121.386 121.758C120.777 121.544 120.125 121.585 119.547 121.865L118.855 122.201C117.662 122.779 117.16 124.222 117.74 125.416L133.148 157.211H125.694C125.804 156.892 125.786 156.59 125.655 156.289L122.128 149.064C121.843 148.457 121.104 148.192 120.497 148.495L118.828 149.311C118.544 149.444 118.316 149.69 118.203 149.993C118.108 150.315 118.126 150.638 118.26 150.942L121.309 157.211H118.14L104.767 129.616C103.882 127.786 104.648 125.577 106.476 124.69L138.872 108.991C139.759 108.563 140.757 108.504 141.688 108.826C142.62 109.149 143.367 109.814 143.796 110.701L153.548 130.823L153.547 130.824ZM124.362 157.211H122.351L119.112 150.525C119.093 150.449 119.074 150.392 119.112 150.316C119.131 150.24 119.188 150.183 119.245 150.164L120.913 149.349C120.951 149.33 120.989 149.311 121.027 149.311C121.141 149.311 121.236 149.367 121.292 149.481L124.8 156.706C124.819 156.782 124.819 156.858 124.8 156.915C124.782 156.991 124.724 157.048 124.668 157.067L124.362 157.211ZM134.2 157.211L118.591 125.003C118.241 124.279 118.545 123.404 119.269 123.055L119.961 122.719C120.312 122.547 120.706 122.524 121.074 122.653C121.443 122.781 121.739 123.045 121.909 123.396L138.296 157.21H134.2V157.211ZM148.106 136.511L137.561 114.753C137.445 114.508 137.546 114.212 137.791 114.094L139.35 113.339C139.589 113.224 139.887 113.323 140.008 113.568L149.92 134.024C149.237 134.807 148.644 135.645 148.106 136.512V136.511ZM178.168 136.178C182.904 142.421 182.85 151.036 178.069 157.211H175.425C180.602 151.846 181.204 143.488 176.573 137.387C174.104 134.131 170.514 132.033 166.466 131.477C162.432 130.923 158.399 131.977 155.142 134.447C151.886 136.916 149.788 140.505 149.232 144.553C148.677 148.602 149.732 152.623 152.201 155.879C152.557 156.347 152.945 156.788 153.35 157.211H150.706L150.605 157.083C147.817 153.407 146.624 148.859 147.251 144.282C147.879 139.704 150.253 135.646 153.933 132.853C161.536 127.086 172.403 128.579 178.168 136.177L178.168 136.178ZM155.297 157.211C154.552 156.569 153.859 155.865 153.259 155.076C151.005 152.104 150.043 148.43 150.548 144.734C151.055 141.038 152.972 137.76 155.946 135.504C158.92 133.248 162.6 132.286 166.287 132.793C169.983 133.299 173.26 135.216 175.516 138.188C180.021 144.123 179.104 152.394 173.491 157.211H155.296H155.297ZM205.028 157.211C205.418 153.253 205.64 149.168 205.65 145.027C205.694 125.235 210.527 117.785 210.578 117.713C210.654 117.597 210.676 117.454 210.639 117.32C210.602 117.187 210.508 117.076 210.382 117.018C210.232 116.949 206.728 115.251 208.304 110.013C208.378 109.765 208.241 109.503 207.995 109.424L194.613 105.173C194.413 105.109 194.198 105.183 194.077 105.356C193.926 105.573 190.32 110.671 184.949 108.224C184.823 108.167 184.683 108.168 184.561 108.223C184.437 108.278 184.342 108.384 184.301 108.514C184.267 108.622 181.049 119.058 179.088 134.327C178.196 133.259 177.206 132.3 176.127 131.463C177.469 109.106 185.673 100.276 187.02 98.9742L219.968 109.465C208.351 120.642 208.434 143.848 208.436 144.085C208.513 148.653 208.352 153.056 207.977 157.212H205.028V157.211ZM180.408 157.211C182.118 154.628 183.129 151.727 183.459 148.764C184.532 149.863 185.799 150.824 187.192 151.581C189.52 152.844 191.995 153.449 194.316 153.449C198.155 153.449 201.578 151.796 203.244 148.726C205.916 143.799 203.066 137.064 196.891 133.714C193.912 132.099 190.615 131.499 187.593 132.022C184.543 132.553 182.145 134.168 180.841 136.57C180.822 136.606 180.81 136.648 180.791 136.685C180.518 136.236 180.224 135.796 179.912 135.365C181.612 121.586 184.386 111.593 185.058 109.298C190.11 111.251 193.743 107.298 194.643 106.178L207.271 110.19C206.094 114.734 208.488 116.905 209.532 117.611C208.492 119.452 204.744 127.31 204.703 145.026C204.693 149.169 204.47 153.255 204.077 157.212H180.409L180.408 157.211ZM183.58 146.611C183.576 143.859 182.973 141.111 181.785 138.556C181.918 138.159 182.068 137.781 182.277 137.403C183.377 135.374 185.443 134.009 188.06 133.573C188.667 133.478 189.274 133.421 189.9 133.421C192.005 133.421 194.204 134.009 196.252 135.109C198.888 136.551 200.917 138.675 201.998 141.139C203.06 143.585 203.041 146.051 201.942 148.08C199.666 152.27 193.39 153.313 187.985 150.355C186.183 149.369 184.704 148.08 183.585 146.638V146.619C183.585 146.619 183.582 146.614 183.581 146.612L183.58 146.611ZM181.26 137.499C181.344 137.31 181.41 137.11 181.508 136.932C182.699 134.738 184.906 133.259 187.723 132.769C190.578 132.272 193.7 132.845 196.528 134.381C202.337 137.532 205.05 143.806 202.578 148.364C200.104 152.921 193.367 154.066 187.556 150.915C186.015 150.079 184.654 148.977 183.543 147.718C183.552 147.548 183.564 147.379 183.569 147.209C184.65 148.554 186.09 149.768 187.795 150.696C189.938 151.852 192.213 152.422 194.337 152.422C197.769 152.422 200.804 150.961 202.283 148.25C203.44 146.126 203.459 143.547 202.34 140.987C201.24 138.446 199.135 136.246 196.423 134.786C193.731 133.307 190.735 132.757 188.004 133.193C185.255 133.667 183.112 135.089 181.955 137.213C181.804 137.497 181.671 137.763 181.557 138.067C181.557 138.067 181.557 138.067 181.557 138.068C181.461 137.877 181.363 137.687 181.261 137.499H181.26ZM187.947 96.007L188.156 96.0831L217.681 105.489L225.74 108.068C224.962 108.845 224.223 109.661 223.54 110.514C211.594 125.153 211.669 149.9 211.688 151.037C211.631 153.102 211.536 155.185 211.385 157.212H208.929C209.301 153.047 209.461 148.639 209.385 144.072C209.383 143.839 209.303 120.266 221.203 109.612C221.329 109.499 221.386 109.325 221.349 109.16C221.314 108.993 221.192 108.859 221.031 108.807L187.046 97.9867C186.887 97.9389 186.722 97.9692 186.598 98.0757C186.191 98.4151 176.828 106.585 175.227 130.802C174.405 130.239 173.545 129.735 172.645 129.308C175.189 106.66 183.604 97.0875 185.462 95.2297L187.946 96.007H187.947ZM233.609 122.698C219.642 130.753 214.144 153.297 214.089 153.528C213.845 154.583 213.582 155.602 213.321 156.625C213.452 154.8 213.546 152.938 213.584 151.057C213.584 150.962 213.584 148.383 213.944 144.439V144.422C218.134 132.54 222.461 128.487 222.507 128.446C222.608 128.353 222.665 128.219 222.66 128.08C222.657 127.942 222.591 127.811 222.484 127.724C222.355 127.62 219.364 125.129 222.153 120.424C222.286 120.202 222.214 119.914 221.994 119.779L220.488 118.855C221.019 117.776 221.606 116.715 222.211 115.693L233.609 122.698V122.698ZM214.381 140.551V140.513C215.177 134.447 216.807 126.695 220.085 119.719L221.107 120.347C218.872 124.475 220.674 127.159 221.518 128.095C220.513 129.161 217.543 132.744 214.376 140.584C214.378 140.573 214.379 140.563 214.38 140.551L214.381 140.551ZM189.945 76.4053C186.383 72.4607 181.925 68.7047 177.778 65.2121C171.883 60.2491 166.316 55.5615 164.939 51.7078C162.371 44.5145 169.188 37.7792 171.092 36.079C174.025 43.0009 180.343 48.6275 181.579 49.6823C182.568 56.745 185.985 68.015 189.945 76.4053ZM192.806 94.1034C192.806 94.1034 192.803 94.1082 192.802 94.1109C192.536 94.4901 192.29 94.907 192.024 95.3435L189.742 94.6086C189.919 94.2779 190.104 93.9445 190.284 93.6312C190.415 93.671 190.527 93.733 190.661 93.7707C191.448 93.9923 192.163 94.1014 192.807 94.1041L192.806 94.1034ZM213.963 102.321L203.363 98.9459C203.761 98.5667 204.065 98.2063 204.254 97.9598L211.593 100.292L216.883 101.98C216.769 102.378 216.693 102.776 216.656 103.175L213.963 102.321ZM192.972 95.6467C193.332 95.002 193.693 94.4328 194.053 93.9398C194.056 93.9357 194.058 93.933 194.061 93.929C194.657 93.7613 195.173 93.4763 195.584 93.0425C196.157 92.4376 196.443 91.6455 196.576 90.8116C196.581 90.8069 196.59 90.7967 196.595 90.792C196.608 90.7795 196.62 90.7669 196.633 90.7543L202.682 92.6889L229.59 101.26C228.168 102.626 226.84 104.238 225.684 106.058L217.587 103.479C217.624 102.948 217.738 102.379 217.909 101.81C217.985 101.564 217.852 101.298 217.605 101.222L209.736 98.7189L209.717 98.7001L204.237 96.9555C204.028 96.8982 203.82 96.9743 203.687 97.1447C203.687 97.1636 203.194 97.8466 202.34 98.624L192.973 95.6467H192.972ZM235.353 99.8566C232.035 103.175 229.247 107.517 227.048 112.808L225.094 111.594C226.043 110.438 227.086 109.338 228.186 108.351C228.451 108.124 228.565 107.782 228.489 107.441C228.413 107.119 228.167 106.853 227.845 106.739L226.631 106.36C227.864 104.445 229.267 102.776 230.822 101.392C230.936 101.278 230.993 101.108 230.974 100.956C230.936 100.786 230.803 100.652 230.651 100.596L200.823 91.0952L196.67 89.7682C196.679 89.0528 196.607 88.3435 196.499 87.7251L197.088 87.8908L235.355 99.8566H235.353ZM86.4578 10.1239C85.5667 13.8024 82.8359 28.2525 86.5717 53.8714C84.8459 54.4595 79.802 55.8249 72.5015 54.5726C71.5726 51.918 67.3815 37.9045 71.44 10.0289C73.3173 9.57358 79.6127 8.3227 86.4585 10.1239H86.4578ZM226.558 21.8425C225.795 21.6222 225.022 21.3764 224.239 21.0961C224.202 21.0834 224.165 21.0887 224.127 21.08C222.639 20.4057 220.829 19.7058 218.796 18.9959C220.274 19.0962 221.491 19.1454 222.591 19.1872C224.415 19.2572 225.854 19.3125 227.713 19.5967C228.796 19.7624 229.02 20.0049 229.022 20.0076C228.906 20.2407 227.736 21.1918 226.558 21.8418V21.8425ZM244.172 29.0386C241.127 28.1582 237.174 26.8844 232.689 25.0313C235.696 25.422 238.399 25.5035 240.663 25.5655C243.22 25.6355 245.428 25.6968 246.209 26.2519C246.559 26.5011 246.552 26.6567 246.55 26.7072C246.517 27.3626 245.154 28.4761 244.173 29.0386H244.172ZM188.79 26.683C188.781 26.6655 188.773 26.6479 188.765 26.6304C186.131 21.2302 183.264 15.3605 180.661 10.8015C187.084 12.2377 215.339 18.7069 224.459 23.3379C234.986 28.6822 244.073 31.0277 247.953 32.0293C249.3 32.3762 250.123 33.231 250.164 34.2744C250.204 35.3293 249.355 36.7593 246.855 37.6121C241.968 39.2779 231.711 38.44 223.007 34.1491C222.916 34.104 222.82 34.0744 222.72 34.0602C217.964 33.3947 205.024 31.2769 202.29 29.4851C202.122 29.376 201.905 29.3127 201.729 29.3316C201.648 29.3349 193.733 29.6448 189.2 26.8123C189.071 26.7321 188.932 26.6958 188.79 26.6823V26.683ZM202.355 86.415C200.655 87.1196 197.631 85.7751 194.702 81.2094C189.224 72.6709 183.815 55.4807 183.23 47.3988C183.191 46.8754 182.72 46.4847 182.215 46.5218C181.884 46.546 181.62 46.7461 181.469 47.0155C178.888 44.5616 173.768 39.1304 172.059 33.2034C171.913 32.7009 171.396 32.4126 170.885 32.5554C170.381 32.7009 170.092 33.2256 170.237 33.7295C170.28 33.8824 170.34 34.0306 170.389 34.1828C169.906 34.5661 159.745 42.8015 163.154 52.3451C164.702 56.6824 170.196 61.308 176.556 66.6637C183.696 72.6756 191.789 79.4897 194.219 86.3941C194.56 87.4072 195.301 90.5879 194.206 91.7384C193.551 92.4282 192.195 92.2308 191.173 91.9439C187.495 90.9106 184.693 88.7706 180.815 85.8094C177.401 83.2019 173.153 79.9579 166.778 76.2996C153.751 68.8226 141.69 66.2178 131.047 63.9202L129.229 63.5268C123.089 62.1924 118.671 59.632 114.773 57.3741C111.723 55.6066 108.842 53.9374 105.679 53.2019C99.6476 51.7988 91.2181 51.2747 88.1843 51.6182C88.1843 51.6176 88.1843 51.6162 88.1843 51.6155H88.1654C85.2831 30.3204 87.0277 17.0465 87.995 12.0214C87.995 12.0187 87.9957 12.0167 87.9963 12.0147C92.3107 12.2579 121.826 13.6381 143.326 7.59118L147.076 6.53295C166.84 0.947474 170.4 -0.059555 175.492 6.30258C178.686 10.2943 183.137 19.4162 187.062 27.4637C190.224 33.945 192.955 39.5413 194.612 41.6416C198.175 46.1547 198.782 48.1748 199.251 57.0811C199.744 66.4313 202.62 81.3839 203.305 84.5835C203.481 85.4012 203.116 86.1038 202.356 86.417L202.355 86.415ZM216.678 157.211H214.151C214.446 156.07 214.741 154.922 215.011 153.743C215.066 153.516 220.657 130.617 234.771 123.137C234.922 123.057 235.018 122.904 235.023 122.733C235.029 122.564 234.942 122.404 234.798 122.315L222.724 114.894C223.103 114.287 223.501 113.699 223.919 113.131L239.545 122.726C226.217 130.764 219.221 149.017 216.678 157.212V157.211ZM223.388 210.296C223.351 210.296 223.312 210.296 223.293 210.315C222.971 210.372 222.63 210.41 222.288 210.41H190.639C187.908 210.41 185.69 208.191 185.69 205.46V192.565C185.69 189.835 187.908 187.616 190.639 187.616H222.288C225.019 187.616 227.238 189.835 227.238 192.565V205.46C227.238 207.812 225.588 209.784 223.388 210.296ZM112.067 236.658C112.538 236.618 113.005 236.579 113.486 236.528V236.574C113.486 236.94 113.782 237.236 114.149 237.236H116.045C116.411 237.236 116.708 236.94 116.708 236.574C116.708 236.406 116.64 236.256 116.537 236.14C129.52 234.251 144.922 229.165 151.815 225.9C160.397 221.834 159.592 215.772 159.208 214.184C160.548 213.787 161.693 213.406 162.569 213.052C164.352 212.332 165.606 211.124 166.289 209.465C167.826 205.742 165.891 201.07 165.767 200.774C167.161 199.994 168.415 198.874 169.365 197.078C171.382 193.269 169.056 189.169 168.08 187.722C173.728 186.939 179.315 185.791 181.861 183.78C184.602 181.617 185.85 179.151 185.2 177.184C184.694 175.658 183.185 174.745 181.059 174.682C178.269 174.6 165.565 174.432 157.813 174.682C150.408 174.921 134.008 174.929 127.632 174.803C126.416 174.78 125.163 174.836 123.934 174.891C120.465 175.049 117.315 175.194 114.812 173.575V171.821C114.812 171.455 114.516 171.158 114.149 171.158C113.783 171.158 113.487 171.455 113.487 171.821V172.477C112.975 171.946 112.503 171.293 112.068 170.526V160.892C112.068 159.909 112.868 159.109 113.851 159.109H220.847C221.83 159.109 222.63 159.909 222.63 160.892V185.74C222.516 185.722 222.403 185.722 222.289 185.722H220.948V184.548C220.948 184.181 220.652 183.885 220.286 183.885C219.919 183.885 219.623 184.181 219.623 184.548V185.722H190.641C186.867 185.722 183.795 188.793 183.795 192.567V205.461C183.795 209.235 186.867 212.307 190.641 212.307H219.623V213.33C219.623 213.697 219.919 213.993 220.286 213.993C220.652 213.993 220.948 213.697 220.948 213.33V212.307H222.289C222.403 212.307 222.516 212.307 222.63 212.288V237.36C222.63 238.344 221.83 239.143 220.847 239.143H113.851C112.868 239.143 112.068 238.343 112.068 237.36V236.66L112.067 236.658ZM50.8649 231.537C50.8649 231.537 50.8649 231.535 50.8642 231.534C44.7392 211.188 43.7719 196.074 43.6392 190.898C53.4212 189.577 65.5527 186.92 69.6024 181.673C74.715 175.043 81.9171 169.184 86.2207 165.682C87.3908 164.728 88.358 163.941 89.0263 163.351C91.9834 160.735 107.56 151.659 113.766 152.539L116.03 157.212H113.85C112.936 157.212 112.11 157.559 111.467 158.111C111.354 158.166 111.25 158.243 111.163 158.344C110.97 158.564 106.476 163.853 110.137 170.964C110.165 171.019 110.196 171.064 110.224 171.118C110.272 171.273 110.344 171.415 110.457 171.525C113.728 177.236 118.946 177.025 124.018 176.786C125.209 176.731 126.418 176.675 127.594 176.699C133.988 176.821 150.442 176.82 157.871 176.579C165.586 176.331 178.227 176.494 181.001 176.579C182.284 176.616 183.158 177.055 183.399 177.781C183.684 178.647 183.147 180.349 180.685 182.292C177.41 184.877 167.184 185.988 160.417 186.723C158.051 186.981 156.008 187.203 154.532 187.443C148.578 188.414 131.317 188.875 127.517 188.766C126.952 188.782 126.558 189.162 126.541 189.686C126.526 190.208 126.937 190.645 127.461 190.662C127.837 190.673 128.346 190.679 128.963 190.679C134.624 190.679 149.38 190.204 154.837 189.314C156.263 189.082 158.283 188.862 160.622 188.609C162.317 188.425 164.158 188.223 166.03 187.99C166.061 188.121 166.114 188.248 166.203 188.361C166.236 188.403 169.551 192.67 167.686 196.191C166.06 199.263 163.371 199.922 160.259 200.685C159.616 200.843 158.964 201.001 158.313 201.185C154.52 202.252 131.698 203.82 126.276 203.82C125.752 203.82 125.327 204.244 125.327 204.768C125.327 205.292 125.752 205.717 126.276 205.717C131.433 205.717 154.666 204.182 158.827 203.011C159.457 202.833 160.088 202.679 160.711 202.526C161.827 202.252 162.954 201.967 164.038 201.567C164.19 201.94 165.729 205.858 164.531 208.75C164.042 209.933 163.166 210.767 161.854 211.294C155.96 213.675 134.384 218.124 121.218 219.242C120.695 219.286 120.308 219.746 120.353 220.266C120.395 220.76 120.808 221.134 121.295 221.134C121.323 221.134 121.35 221.132 121.376 221.131C131.579 220.264 148.006 217.253 157.388 214.702C157.683 215.863 158.39 220.686 151 224.187C142.25 228.331 118.058 235.876 105.058 234.903C95.8303 234.22 88.1506 233.044 80.0209 231.798C76.6078 231.276 73.1004 230.738 69.343 230.216C62.8597 229.314 55.8637 230.391 50.8608 231.539L50.8649 231.537ZM27.976 191.807C29.6829 191.105 35.2199 189.095 41.7053 189.758C41.743 193.665 42.3499 210.447 49.48 233.506C47.7919 234.283 42.9946 236.161 36.2249 236.085C34.8784 233.241 28.2791 218.07 27.976 191.807Z" fill="#DCE4DD"/>
</svg>
