<svg width="212" height="282" viewBox="0 0 212 282" fill="none" xmlns="http://www.w3.org/2000/svg">
<g clip-path="url(#clip0_636_11916)">
<path d="M183.52 38.3516C183.41 38.1816 183.31 38.0216 183.2 37.8516C183.47 37.9116 183.6 38.0616 183.52 38.3516Z" fill="#DCE4DD"/>
<path d="M147.41 9.24906C147.33 9.09906 147.25 8.94906 147.17 8.78906C147.25 8.93906 147.33 9.08906 147.41 9.24906Z" fill="#DCE4DD"/>
<path d="M205.87 126.969C205.9 127.079 205.93 127.199 205.94 127.309C205.94 127.329 205.82 127.349 205.75 127.369C205.72 127.209 205.76 127.079 205.87 126.969Z" fill="#FF9331"/>
<path d="M107.47 121.421L69.4904 4.55081C68.3804 1.11081 64.7204 -0.789192 61.3204 0.320808L4.89041 18.6508C1.49041 19.7608 -0.359594 23.4408 0.760406 26.8808L38.7404 143.751C39.8504 147.191 43.5104 149.081 46.9104 147.981L65.1504 142.051L67.2904 141.361C67.0604 140.141 66.8104 138.921 66.5304 137.721C65.7904 137.961 65.0604 138.201 64.3304 138.441C57.9704 140.511 51.6204 142.591 45.2704 144.661C44.7104 144.841 44.1204 145.031 43.5404 144.941C42.3604 144.751 42.0604 143.161 41.7204 142.231C41.4904 141.581 41.2604 140.931 41.0404 140.271C40.5904 138.951 39.9704 137.671 39.7304 136.291C39.5104 135.021 39.9204 134.521 41.1104 134.091C41.8504 133.811 42.6004 133.551 43.3504 133.291C45.7104 132.471 48.0704 131.671 50.4304 130.881C54.0604 129.661 57.6904 128.461 61.3204 127.261C62.0904 127.011 62.8604 126.751 63.6304 126.501C63.3404 125.441 63.0504 124.381 62.7704 123.331C62.0004 123.581 61.2404 123.831 60.4704 124.081C53.8304 126.241 47.1904 128.411 40.5504 130.601C40.5304 130.601 40.5004 130.601 40.4804 130.621C39.8304 130.831 38.9404 131.231 38.2704 130.911C37.9704 130.751 37.7604 130.461 37.5804 130.171C37.5204 130.081 37.4704 129.991 37.4204 129.911C36.7004 128.651 36.3504 127.201 35.9004 125.831C35.2404 123.811 34.5804 121.781 33.9304 119.761C32.1204 114.191 30.3004 108.611 28.4904 103.041C26.8404 97.9508 25.1904 92.8608 23.5304 87.7708C22.9804 86.0808 22.4404 84.3908 21.8904 82.7108C21.7604 82.3008 21.7604 81.8908 21.8404 81.5008C17.2404 67.2608 12.6304 53.0308 8.01041 38.8108C7.51041 37.2508 8.00041 36.7508 9.44041 36.2908C29.0104 29.9708 48.5704 23.6108 68.1204 17.2108C69.6804 16.7008 70.3404 16.8908 70.8704 18.5308C73.2704 25.9708 75.6804 33.4208 78.0904 40.8608C79.2904 44.5808 80.5004 48.3008 81.7104 52.0208C82.3104 53.8808 82.9204 55.7408 83.5204 57.6008C84.8604 61.7308 86.6304 65.7208 87.9504 69.8608C89.1104 73.4908 90.2004 77.1508 91.3804 80.7808L98.6304 103.111C99.2004 104.881 99.7704 106.651 100.35 108.411C100.78 109.721 99.9704 111.151 98.5404 111.611L83.1404 116.621C82.9004 116.801 82.5404 116.981 81.9904 117.151C81.8504 117.201 81.7004 117.241 81.5604 117.291C81.5404 117.291 81.5304 117.291 81.5104 117.311C80.2104 117.721 78.9104 118.141 77.6104 118.561C77.0504 118.741 76.4904 118.921 75.9304 119.101C76.2904 120.111 76.6404 121.121 76.9804 122.131C77.5604 121.941 78.1504 121.741 78.7304 121.561C83.6504 119.951 88.5704 118.341 93.4904 116.741C95.8304 115.981 98.1704 115.221 100.51 114.461C100.98 114.311 101.52 114.161 101.95 114.401C102.34 114.621 102.5 115.081 102.64 115.511C103.5 118.151 104.36 120.801 105.22 123.451C105.34 123.801 105.45 124.171 105.34 124.521C105.23 124.891 104.92 125.131 104.55 125.301C104.37 125.381 104.18 125.451 104 125.511C96.9004 127.831 89.8004 130.141 82.7104 132.451C82.0004 132.691 81.2904 132.921 80.5904 133.151C80.9604 134.331 81.3304 135.511 81.6804 136.691L83.7804 136.011L103.34 129.651C106.73 128.551 108.58 124.871 107.47 121.431V121.421ZM66.8104 14.3108C66.6104 14.3708 66.4204 14.4308 66.2304 14.4908C63.5804 15.3308 60.9404 16.1908 58.2904 17.0408C51.4204 19.2608 44.5604 21.4908 37.7004 23.7308C27.9904 26.8808 18.2804 30.0008 8.60041 33.2208C7.11041 33.7108 6.47041 33.4808 6.03041 31.9808C5.30041 29.4808 4.37041 27.0508 3.51041 24.5908C2.97041 23.0508 3.31041 22.1608 5.06041 21.6008C5.15041 21.5708 5.25041 21.5408 5.34041 21.5008C5.35041 21.5008 5.36041 21.5008 5.38041 21.4908C24.3404 15.3808 43.3004 9.22081 62.2504 3.01081C62.2604 3.00081 62.2704 3.00081 62.2904 3.00081C62.4704 2.94081 62.6504 2.88081 62.8304 2.82081C64.7004 2.21081 65.4504 2.80081 65.9404 4.47081C66.6304 6.82081 67.3304 9.18081 68.2304 11.4608C68.8704 13.0908 68.5304 13.7608 66.8104 14.3108Z" fill="#DCE4DD"/>
<path d="M35.1604 16.4013C37.9204 15.5113 40.6804 14.6213 43.4304 13.7113C44.5404 13.3513 45.7104 12.9713 46.1604 14.5213C46.5504 15.8413 45.6204 16.3713 44.5404 16.7213C38.9604 18.5313 33.3704 20.3513 27.7904 22.1713C26.7204 22.5213 25.6604 22.6613 25.1804 21.3513C24.6304 19.8313 25.7704 19.4413 26.8804 19.0713C29.6404 18.1813 32.3904 17.2813 35.1504 16.3913L35.1604 16.4013Z" fill="#DCE4DD"/>
<path d="M50.2704 74.0786L48.9604 70.0586C43.1004 71.6086 38.1604 69.5786 36.1604 64.6786L39.5404 63.5786C40.7604 66.7186 43.9704 68.0486 48.0004 67.0886L43.8804 54.3986L41.9504 54.5186C36.4404 54.9486 32.8104 52.9486 31.3604 48.4686C29.7104 43.3986 32.3604 38.6586 38.0104 36.3186L36.7204 32.3486L39.1404 31.5586L40.4304 35.5286C45.8404 34.1686 50.3504 36.2386 52.4804 41.2486L49.1904 42.3186C47.7604 38.9986 45.0104 37.6686 41.3704 38.4486L45.4504 50.9986L47.6204 50.8486C53.1904 50.4486 56.7304 52.4786 58.1504 56.8686C59.8604 62.1186 57.2104 66.8686 51.3804 69.2686L52.6904 73.2886L50.2704 74.0786ZM41.5604 51.3186L42.8404 51.2086L38.9704 39.2986C35.2204 40.9686 33.5004 44.0586 34.5804 47.3886C35.5104 50.2686 37.8104 51.5886 41.5604 51.3286V51.3186ZM47.9204 54.0986L46.4904 54.2086L50.4204 66.3086C54.3004 64.5886 56.0704 61.4986 54.9804 58.1186C54.0204 55.1486 51.7004 53.7786 47.9204 54.0986Z" fill="#DCE4DD"/>
<mask id="mask0_636_11916" style="mask-type:luminance" maskUnits="userSpaceOnUse" x="109" y="31" width="103" height="95">
<path d="M211.48 31.3281H109.54V125.838H211.48V31.3281Z" fill="white"/>
</mask>
<g mask="url(#mask0_636_11916)">
<path d="M206.64 43.4677C206.3 43.2977 205.94 43.3677 205.58 43.3677C180.57 43.3677 155.56 43.3677 130.55 43.3477C129.81 43.3477 129.21 43.5277 128.9 44.1277C128.76 44.3877 128.8 44.8677 129.04 45.2877C129.37 45.8677 129.98 45.8777 130.34 45.8577C133.44 45.6877 136.55 45.8177 139.64 45.8077C146.37 45.7777 153.1 45.7277 159.82 45.8277C162.5 45.8677 165.18 45.7277 167.85 45.7777C170.52 45.8277 173.2 45.7877 175.88 45.7877H183.91C190.04 45.7877 196.17 45.7877 202.3 45.7977C202.97 45.7977 203.67 45.6177 204.31 45.9977" stroke="#DCE4DD" stroke-width="2" stroke-linecap="round" stroke-linejoin="round"/>
<path d="M113.01 32.1769C113.18 33.0569 113.45 33.9369 112.7 34.7169C112.05 35.3869 111.28 35.5269 110.69 35.0269C110.07 34.5069 109.94 33.5869 110.49 32.9269C111.07 32.2269 111.8 31.8269 112.81 31.9469C113.78 32.0669 114.78 31.8769 115.77 32.0669C118.64 32.6169 120.4 34.3969 121.49 37.0269C122.67 39.8769 123.09 42.8769 123.5 45.8969C123.88 48.6669 123.95 51.4569 123.99 54.2369C124.08 60.0069 124.1 65.7769 123.99 71.5469C123.89 76.2269 123.97 80.9069 123.91 85.5869C123.87 88.3969 126.01 90.6269 128.88 90.5569C141.95 90.2569 155.03 90.3969 168.1 90.5169C175.45 90.5869 182.83 90.7569 190.17 90.4369C192 90.3569 192.6 93.0469 190.8 93.5969C190.47 93.6969 190.1 93.7069 189.75 93.7069C170.87 93.7069 151.99 93.7269 133.11 93.6869C131.81 93.6869 130.5 93.6369 129.2 93.6269C128.61 93.6269 128.05 93.8069 127.6 94.3369C125.3 97.0469 124.44 100.207 125.01 103.627C125.79 108.397 128.71 111.427 133.33 112.807C134.18 113.067 135.09 113.167 135.97 113.347" stroke="#DCE4DD" stroke-width="2" stroke-linecap="round" stroke-linejoin="round"/>
<path d="M193 112.818C193.69 112.168 193.79 111.468 193.34 110.588C192.89 109.718 192.27 109.428 191.31 109.428C173.84 109.448 156.37 109.468 138.9 109.408C137.21 109.408 135.52 109.598 133.82 109.358C130.73 108.928 129.81 106.048 130.23 103.858C130.73 101.238 132.11 99.2883 134.43 97.8983C135.04 97.5383 135.77 97.2483 136.25 96.6783C136.6 96.2683 136.77 95.8383 136.25 95.4183C135.86 95.1083 135.46 95.0783 135.21 95.5283C134.91 96.0783 134.46 96.6483 134.98 97.3183" stroke="#DCE4DD" stroke-width="2" stroke-linecap="round" stroke-linejoin="round"/>
<path d="M141.22 58.5552C139 58.5552 136.78 58.5452 134.56 58.5552C132.76 58.5652 130.97 58.6352 129.17 58.6552C127.68 58.6752 126.97 59.2952 126.85 60.7652C126.78 61.6752 126.76 62.5952 126.74 63.5052C126.66 66.5352 126.65 69.5652 126.5 72.5852C126.43 73.9852 127.56 75.0452 128.95 75.0452C140.12 74.9952 151.28 75.0252 162.45 75.0252" stroke="#DCE4DD" stroke-width="2" stroke-linecap="round" stroke-linejoin="round"/>
<path d="M192.85 112.945C194 113.335 195.23 113.175 196.39 113.495C198.56 114.085 200.57 114.905 201.79 117.055C202.93 119.065 202.37 123.345 199.18 124.525C195.73 125.795 191.81 123.575 191.49 119.275C191.38 117.825 191.72 116.355 192.07 114.925C192.19 114.435 192.23 113.925 192.31 113.425L136.48 113.785C136.56 114.285 136.6 114.795 136.72 115.285C137.08 116.715 137.41 118.175 137.3 119.635C136.98 123.935 133.06 126.165 129.61 124.895C126.42 123.715 125.86 119.435 127 117.425C128.22 115.285 130.22 114.455 132.4 113.865C133.56 113.555 134.79 113.705 135.94 113.315" stroke="#DCE4DD" stroke-width="2" stroke-linecap="round" stroke-linejoin="round"/>
<path d="M198.39 57.7174C199.11 55.5374 200.22 53.5274 201.25 51.4874C202.18 49.6574 203.35 47.9574 204.42 46.2074C204.7 45.7474 205.12 45.5874 205.58 45.6974C206.78 45.9774 207.98 45.7374 209.18 45.7874C210.66 45.8574 211.29 46.7974 210.66 48.1174C209.33 50.8974 207.98 53.6774 206.65 56.4574C203.51 63.0374 200.38 69.6174 197.24 76.1974C195.56 79.7174 193.8 83.2074 192.2 86.7674C191.66 87.9774 190.82 89.0674 190.69 90.4474" stroke="#DCE4DD" stroke-width="2" stroke-linecap="round" stroke-linejoin="round"/>
<path d="M205.58 57.9364C203.22 57.8664 200.85 57.7964 198.5 57.8864C193.6 58.0864 188.7 58.0064 183.81 58.1164C176.77 58.2664 169.72 58.2164 162.68 58.2564" stroke="#DCE4DD" stroke-width="2" stroke-linecap="round" stroke-linejoin="round"/>
<path d="M162.47 58.2461C162.01 58.2861 161.56 58.3461 161.1 58.3461C157.58 58.3461 154.05 58.3261 150.53 58.3561C147.89 58.3761 145.24 58.4861 142.6 58.5561C142.21 58.5661 141.82 58.2961 141.44 58.5561" stroke="#DCE4DD" stroke-width="2" stroke-linecap="round" stroke-linejoin="round"/>
<path d="M162.67 74.9267C166.02 75.2167 169.36 74.9067 172.71 74.9267C178.45 74.9567 184.19 74.9267 189.94 74.9367C190.57 74.9367 191.21 75.0067 191.84 75.0367" stroke="#DCE4DD" stroke-width="2" stroke-linecap="round" stroke-linejoin="round"/>
<path d="M183.92 58.2461C183.96 60.7561 183.47 63.2361 183.38 65.7361C183.32 67.4261 183.04 69.1061 182.95 70.7961C182.85 72.8061 182.61 74.8061 182.44 76.8161C182.33 78.1161 182.24 79.4261 182.12 80.7261C181.92 82.8361 181.62 84.9461 181.53 87.0661C181.48 88.1261 181.19 89.1661 181.28 90.2261" stroke="#DCE4DD" stroke-width="2" stroke-linecap="round" stroke-linejoin="round"/>
<path d="M162.57 46.2188C162.33 48.5087 162.4 50.7988 162.51 53.0788C162.59 54.6688 162.53 56.2488 162.55 57.8288C162.61 63.3188 162.58 68.8088 162.57 74.2988C162.55 79.6088 162.5 84.9287 162.47 90.2387" stroke="#DCE4DD" stroke-width="2" stroke-linecap="round" stroke-linejoin="round"/>
<path d="M197.97 58.1367C197.78 59.5367 197.04 60.7467 196.56 62.0267C195.56 64.6467 194.58 67.2767 193.73 69.9567C193.23 71.5367 192.59 73.0767 192.27 74.7167" stroke="#DCE4DD" stroke-width="2" stroke-linecap="round" stroke-linejoin="round"/>
<path d="M141.12 46.1055C141.08 51.7655 141.41 57.4355 141.35 63.0955C141.31 66.5855 141.39 70.0655 141.56 73.5455C141.77 77.8755 141.73 82.2055 141.76 86.5355C141.77 87.7655 141.89 88.9955 141.96 90.2255" stroke="#DCE4DD" stroke-width="2" stroke-linecap="round" stroke-linejoin="round"/>
<path d="M184.98 46.1055C184.73 47.2855 184.78 48.5055 184.72 49.6955C184.62 51.9155 184.11 54.1055 184.23 56.3455C184.27 56.9255 183.87 57.4455 184.02 58.0355" stroke="#DCE4DD" stroke-width="2" stroke-linecap="round" stroke-linejoin="round"/>
</g>
<path d="M71.8504 92.9002C71.8504 93.3502 71.8204 93.8102 71.7604 94.2502C71.5804 95.8402 71.0604 97.3302 70.3004 98.6502C69.3804 96.7402 68.4004 94.8502 67.4104 92.9602C66.5904 91.4302 65.1004 90.0202 63.5804 89.1602C60.2804 87.2702 57.5504 88.5602 56.7404 92.2802C56.3304 94.1902 56.1904 96.2202 56.2304 98.1902C56.2704 100.05 56.4004 101.89 56.5804 103.74C55.3604 103.33 54.2404 102.7 53.2604 101.91C50.5904 99.8202 48.8804 96.5602 48.8804 92.9002C48.8804 86.5602 54.0104 81.4102 60.3504 81.4102C66.6904 81.4102 71.8404 86.5602 71.8404 92.9002H71.8504Z" stroke="#DCE4DD" stroke-width="3" stroke-miterlimit="10"/>
<path d="M77.5204 127.149C77.5504 127.389 77.3504 127.579 77.1704 127.709C76.3904 128.219 75.4504 128.289 74.5604 128.409C72.3004 128.719 70.0904 129.429 68.0404 130.499C67.8004 130.619 67.5604 130.749 67.2904 130.789C67.0304 130.829 66.7404 130.749 66.5804 130.519C66.3704 130.229 66.4304 129.809 66.5404 129.459C67.5004 126.489 70.6704 125.559 73.3604 125.559H73.6104C73.9204 125.559 74.2104 125.579 74.5004 125.609C75.5404 125.709 76.6604 125.979 77.3604 126.839C77.4304 126.929 77.5004 127.029 77.5204 127.149Z" fill="#DCE4DD"/>
<path d="M82.4404 131.529L78.7304 121.549C78.1504 121.729 77.5604 121.929 76.9804 122.119C78.2504 125.769 79.4504 129.449 80.5904 133.139C81.2904 132.909 82.0004 132.679 82.7104 132.439C82.6204 132.139 82.5304 131.829 82.4404 131.529ZM70.8004 100.219L70.7604 100.119L69.3204 96.2389C68.9504 95.5389 68.5904 94.8289 68.2204 94.1289C67.7004 93.1389 67.1504 92.1689 66.4904 91.2689C65.6704 90.1589 64.5604 89.0989 63.3504 88.4589C61.0504 87.2589 57.6404 87.4989 56.3404 90.0389C55.7504 91.1989 55.3504 92.5389 55.2304 93.8289C55.0804 95.6489 55.0804 97.4989 55.1604 99.3189C55.1604 99.3889 55.1604 99.4589 55.1804 99.5289C55.2904 101.279 55.7504 102.999 56.1204 104.699C56.1304 104.749 56.1404 104.809 56.1604 104.859C56.1604 104.899 56.1604 104.929 56.1804 104.969C57.5604 111.339 58.8504 117.759 60.4704 124.079C61.2404 123.829 62.0004 123.579 62.7704 123.329C61.5704 118.909 60.3704 114.489 59.2304 110.059C58.7504 108.179 58.3304 106.289 58.0104 104.379C58.0004 104.339 58.0004 104.309 57.9904 104.269C57.8004 103.119 57.6404 101.969 57.5204 100.819C57.3904 99.5189 57.3004 98.2189 57.2704 96.9089C57.2404 95.5189 57.3404 94.0889 57.6304 92.7389C58.2004 90.1189 60.1204 89.2089 62.4504 90.5389C63.5204 91.1489 64.5704 92.1389 65.1504 93.2189C65.8504 94.5489 66.5404 95.8789 67.1904 97.2289C67.7704 98.3889 68.3204 99.5589 68.8404 100.739C68.8404 100.769 68.8704 100.809 68.8804 100.839C69.2004 101.559 69.5004 102.279 69.8004 102.999C71.9804 108.309 74.0204 113.679 75.9304 119.089C76.4904 118.909 77.0504 118.729 77.6104 118.549L70.8004 100.219ZM158.64 243.409C158.21 242.969 157.51 242.819 156.93 242.529C156.86 242.619 156.8 242.719 156.73 242.819C156.57 242.479 156.4 242.149 156.26 241.809C154.54 237.579 152.81 233.359 151.13 229.109C148.22 221.719 147.57 214.059 148.55 206.229C148.85 203.799 149.54 201.409 149.75 198.969C150.06 195.459 150.18 191.939 150.21 188.419C150.25 183.019 150.15 177.619 150.1 172.209C150.04 167.469 149.05 162.989 145.81 159.379C142.28 155.449 138.01 152.979 132.5 153.829C131.03 154.049 129.63 154.759 128.14 155.259C128.1 155.119 128.03 154.829 127.96 154.539C127.44 152.169 126.36 150.109 124.59 148.459C122.08 146.129 119.1 144.679 115.79 143.999C113.43 143.509 111.18 143.929 109.29 145.589C108.79 146.029 108.32 146.509 107.82 146.979C107.68 146.699 107.53 146.399 107.37 146.099C104.73 141.019 100.65 138.229 94.8804 138.249C91.5804 138.259 88.8404 139.439 87.1104 142.449C86.8004 142.999 86.5604 143.599 86.2404 144.269C85.4104 141.479 84.5904 138.739 83.7804 135.999C83.4204 134.819 83.0704 133.629 82.7104 132.439C82.6204 132.139 82.5304 131.829 82.4404 131.529L78.7304 121.549L77.6104 118.549L70.8004 100.219L70.7604 100.119L69.3204 96.2389C68.9504 95.5389 68.5904 94.8289 68.2204 94.1289C67.7004 93.1389 67.1504 92.1689 66.4904 91.2689C65.6704 90.1589 64.5604 89.0989 63.3504 88.4589C61.0504 87.2589 57.6404 87.4989 56.3404 90.0389C55.7504 91.1989 55.3504 92.5389 55.2304 93.8289C55.0804 95.6489 55.0804 97.4989 55.1604 99.3189C55.1604 99.3889 55.1604 99.4589 55.1804 99.5289C55.2904 101.279 55.7504 102.999 56.1204 104.699C56.1304 104.749 56.1404 104.809 56.1604 104.859C56.1604 104.899 56.1604 104.929 56.1804 104.969C57.5604 111.339 58.8504 117.759 60.4704 124.079C60.7504 125.139 61.0304 126.199 61.3204 127.259C61.3404 127.319 61.3504 127.369 61.3704 127.429C63.0604 133.429 62.6304 131.859 63.0304 133.289C63.6104 135.559 64.0204 137.189 64.3304 138.439C64.7404 140.099 64.9604 141.099 65.1504 142.049C65.2904 142.709 65.4104 143.339 65.5604 144.159L66.2404 147.659C68.0204 160.269 69.7904 172.709 71.5504 185.149C71.4704 185.179 71.4004 185.209 71.3204 185.239C70.9904 184.579 70.6404 183.919 70.3404 183.249C68.0704 178.039 65.8504 172.799 63.5304 167.609C62.8204 166.029 61.9104 164.539 61.0104 163.059C60.0404 161.479 58.8004 160.119 57.1104 159.219L57.1404 159.189L53.3004 157.849C50.6804 157.149 48.6904 158.399 48.1604 160.959C47.9304 162.049 47.9404 163.199 48.0004 164.319C48.0404 164.989 48.0304 164.199 48.3304 167.619C48.5304 169.189 48.7004 170.399 48.8404 171.619C49.6804 178.679 50.8704 185.669 52.7304 192.529C54.6204 199.529 57.1504 206.239 61.3304 212.219C64.8404 217.239 69.4404 221.109 74.1504 224.899C77.1104 227.289 80.2504 229.549 82.8204 232.319C90.9604 241.069 96.7104 251.479 102.5 261.899C101.43 262.299 101.38 263.049 101.57 264.009C102.8 270.029 105.13 275.589 108.21 280.869C108.64 281.599 109.17 281.869 109.97 281.729C114.17 280.999 118.43 280.499 122.58 279.519C137.21 276.059 150.93 270.209 164.01 262.809C164.44 262.569 164.87 261.889 164.9 261.389C165.32 254.519 163.53 248.399 158.64 243.409ZM87.0204 233.599C83.8604 229.679 80.0004 226.579 76.0604 223.539C71.6104 220.099 67.3104 216.479 63.8904 211.939C59.9504 206.729 57.5004 200.789 55.6304 194.579C54.9604 192.359 54.4304 190.099 53.8204 187.859C53.6704 187.309 53.8004 186.969 54.3004 186.689C55.7104 185.939 57.0804 185.109 58.7704 185.179C59.0104 185.189 59.2504 184.959 59.4904 184.779C59.5504 184.739 59.6004 184.699 59.6604 184.669C59.5604 184.529 59.4804 184.349 59.4004 184.189C59.2904 183.979 59.1704 183.799 59.0104 183.749C58.4504 183.589 57.7904 183.529 57.2204 183.649C55.9004 183.949 54.6204 184.369 53.1504 184.789C52.8304 182.979 52.4304 181.149 52.1704 179.289C51.4704 174.249 50.8104 169.209 50.1704 164.159C50.0804 163.429 50.1004 162.649 50.2104 161.919C50.4904 160.129 51.3404 159.569 53.0804 160.019C55.6704 160.699 57.9504 161.909 59.2104 164.389C61.1904 168.309 63.1204 172.259 64.9104 176.269C67.1104 181.219 68.9804 186.319 71.9404 190.889C72.1104 191.149 72.2304 191.489 72.4604 191.639C72.8304 191.859 73.3504 192.149 73.6804 192.039C74.0004 191.939 74.3704 191.349 74.3604 190.989C74.2804 189.429 74.0904 187.869 73.8904 186.319C73.1704 180.899 72.4704 175.489 71.7004 170.079C70.6804 162.949 69.6604 155.819 68.5404 148.709C68.1504 146.259 67.7604 143.799 67.2904 141.359C67.0604 140.139 66.8104 138.919 66.5304 137.719C66.4404 137.299 66.3304 136.879 66.2304 136.459C65.3904 133.129 64.5204 129.819 63.6304 126.499C63.3404 125.439 63.0504 124.379 62.7704 123.329C61.5704 118.909 60.3704 114.489 59.2304 110.059C58.7504 108.179 58.3304 106.289 58.0104 104.379C58.0004 104.339 58.0004 104.309 57.9904 104.269C57.8004 103.119 57.6404 101.969 57.5204 100.819C57.3904 99.5189 57.3004 98.2189 57.2704 96.9089C57.2404 95.5189 57.3404 94.0889 57.6304 92.7389C58.2004 90.1189 60.1204 89.2089 62.4504 90.5389C63.5204 91.1489 64.5704 92.1389 65.1504 93.2189C65.8504 94.5489 66.5404 95.8789 67.1904 97.2289C67.7704 98.3889 68.3204 99.5589 68.8404 100.739C68.8404 100.769 68.8704 100.809 68.8804 100.839C69.2004 101.559 69.5004 102.279 69.8004 102.999C71.9804 108.309 74.0204 113.679 75.9304 119.089C76.2904 120.099 76.6404 121.109 76.9804 122.119C78.2504 125.769 79.4504 129.449 80.5904 133.139C80.9604 134.319 81.3304 135.499 81.6804 136.679C83.2104 141.719 84.6504 146.799 86.0104 151.899C86.1804 152.549 86.4304 153.179 86.5804 153.839C86.7404 154.549 87.2204 154.819 87.8404 154.719C88.5204 154.609 88.8304 154.079 88.6904 153.419C88.4804 152.389 88.0204 151.389 87.9404 150.349C87.7104 147.629 87.8504 144.919 89.6604 142.669C91.3304 140.589 93.6904 140.329 96.1504 140.529C101.08 140.939 104.04 143.919 105.95 148.239C106.39 149.239 106.78 150.259 107.2 151.269C107.48 151.949 107.88 152.529 108.71 152.229C109.6 151.909 109.5 151.229 109.29 150.449C109.17 149.989 109.19 149.369 109.4 148.949C110.53 146.769 112.57 145.739 114.99 146.139C118.05 146.639 120.72 147.999 123.02 150.069C125.16 151.989 125.96 154.519 126.09 157.309C126.12 157.949 126.17 158.499 126.89 158.799C127.61 159.109 127.93 158.599 128.35 158.229C131.06 155.809 134.16 155.279 137.56 156.389C143.32 158.269 147.31 163.419 147.72 169.709C147.93 172.909 147.88 176.129 147.88 179.339C147.86 185.389 147.88 191.439 147.7 197.489C147.64 199.479 147 201.439 146.68 203.429C145.35 211.819 145.52 220.129 148.5 228.189C150.33 233.139 152.37 238.009 154.32 242.919C154.44 243.229 154.57 243.539 154.83 244.139C149.17 246.519 143.68 248.959 138.1 251.159C127.58 255.319 116.79 258.629 105.79 261.249C104.99 261.439 104.63 261.279 104.23 260.519C99.1804 251.109 93.7404 241.939 87.0204 233.599ZM162.17 261.309C148.18 269.109 133.49 275.109 117.76 278.319C115.44 278.799 113.08 279.089 110.72 279.399C110.39 279.439 109.83 279.199 109.67 278.919C107.09 274.429 105.14 269.679 103.97 264.619C103.93 264.429 103.97 264.219 103.97 263.969C122.4 259.679 140.2 253.629 157.27 245.189C158.61 246.459 159.64 248.009 160.48 249.679C162.15 253.019 162.81 256.589 162.78 260.289C162.78 260.639 162.47 261.139 162.17 261.309Z" fill="#DCE4DD"/>
</g>
<defs>
<clipPath id="clip0_636_11916">
<rect width="211.47" height="281.76" fill="white" transform="translate(0.43042)"/>
</clipPath>
</defs>
</svg>
