<svg width="25" height="25" viewBox="0 0 25 25" fill="none" xmlns="http://www.w3.org/2000/svg">
<path d="M19.8999 6.30469L19.2802 16.3298C19.1218 18.8911 19.0427 20.1718 18.4007 21.0926C18.0832 21.5478 17.6746 21.932 17.2006 22.2207C16.242 22.8047 14.9589 22.8047 12.3926 22.8047C9.82302 22.8047 8.5382 22.8047 7.57895 22.2196C7.1047 21.9304 6.6959 21.5455 6.37858 21.0895C5.73678 20.1673 5.65935 18.8848 5.50451 16.3199L4.8999 6.30469" stroke="#232323" stroke-width="1.5" stroke-linecap="round"/>
<path d="M3.3999 6.30469H21.3999M16.4556 6.30469L15.773 4.89642C15.3195 3.96095 15.0927 3.49321 14.7016 3.2015C14.6149 3.13679 14.523 3.07923 14.4269 3.02939C13.9938 2.80469 13.474 2.80469 12.4344 2.80469C11.3687 2.80469 10.8359 2.80469 10.3956 3.03881C10.298 3.0907 10.2049 3.15059 10.1172 3.21786C9.72154 3.52139 9.50053 4.00624 9.05851 4.97595L8.45282 6.30469" stroke="#232323" stroke-width="1.5" stroke-linecap="round"/>
<path d="M9.8999 17.3047V11.3047" stroke="#232323" stroke-width="1.5" stroke-linecap="round"/>
<path d="M14.8999 17.3047V11.3047" stroke="#232323" stroke-width="1.5" stroke-linecap="round"/>
</svg>
