<svg width="88" height="88" viewBox="0 0 88 88" fill="none" xmlns="http://www.w3.org/2000/svg">
<path d="M0 24C0 10.7452 10.7452 0 24 0H64C77.2548 0 88 10.7452 88 24V64C88 77.2548 77.2548 88 64 88H24C10.7452 88 0 77.2548 0 64V24Z" fill="#E8E8E8"/>
<path d="M39.7025 29.3285L38.763 27.2146C38.1487 25.8324 37.8415 25.1413 37.3821 24.6124C36.8064 23.9495 36.056 23.4619 35.2165 23.205C34.5466 23 33.7903 23 32.2777 23C30.065 23 28.9587 23 28.0299 23.4253C26.9359 23.9264 25.9479 25.0143 25.5543 26.1514C25.2201 27.1167 25.3158 28.1087 25.5073 30.0926C27.545 51.2105 39.1228 62.7882 60.2405 64.8259C62.2246 65.0175 63.2167 65.1132 64.1817 64.779C65.319 64.3854 66.4068 63.3972 66.908 62.3034C67.3332 61.3745 67.3332 60.2682 67.3332 58.0555C67.3332 56.5428 67.3332 55.7866 67.1283 55.1167C66.8714 54.2772 66.3837 53.5268 65.7208 52.9511C65.1921 52.4917 64.501 52.1846 63.1187 51.5703L61.0047 50.6306C59.5079 49.9654 58.7593 49.6329 57.9989 49.5606C57.2709 49.4913 56.5371 49.5935 55.8557 49.8588C55.1438 50.136 54.5148 50.6603 53.2562 51.7089C52.0036 52.7528 51.3773 53.2748 50.612 53.5543C49.9335 53.8021 49.0366 53.894 48.3221 53.7886C47.5159 53.6698 46.8988 53.3401 45.6642 52.6802C41.8235 50.6278 39.7055 48.5099 37.6529 44.669C36.9932 43.4346 36.6634 42.8172 36.5446 42.0113C36.4393 41.2966 36.5311 40.3997 36.7789 39.7214C37.0585 38.956 37.5805 38.3297 38.6244 37.077C39.673 35.8186 40.1974 35.1894 40.4746 34.4775C40.7399 33.7962 40.842 33.0623 40.7728 32.3345C40.7004 31.5739 40.3678 30.8254 39.7025 29.3285Z" stroke="#232323" stroke-width="1.5" stroke-linecap="round"/>
</svg>
