<svg width="294" height="52" viewBox="0 0 294 52" fill="none" xmlns="http://www.w3.org/2000/svg">
<g clip-path="url(#clip0_632_10147)">
<path d="M59.5996 5.89962C59.5996 4.6772 60.0614 3.59061 60.9578 2.69418C61.8543 1.79774 62.9409 1.33594 64.1905 1.33594C65.44 1.33594 66.5538 1.79774 67.4502 2.69418C68.3467 3.56345 68.8085 4.65004 68.8085 5.92678C68.8085 7.20353 68.3467 8.29012 67.4502 9.18656C66.581 10.083 65.4944 10.5448 64.2176 10.5448C62.9409 10.5448 61.8543 10.083 60.9578 9.18656C60.0614 8.29012 59.5996 7.20353 59.5996 5.89962ZM67.7219 18.6127V49.1731H60.659V18.6127H67.7219Z" fill="#232323"/>
<path d="M75.0564 18.6116H82.1464V21.4368C84.6184 18.9919 87.3892 17.7695 90.486 17.7695C94.0446 17.7695 96.8154 18.8833 98.7984 21.138C100.51 23.0395 101.379 26.1363 101.379 30.4555V49.172H94.2891V32.1125C94.2891 29.0972 93.8816 27.0056 93.0395 25.8646C92.2245 24.6965 90.7305 24.0989 88.5845 24.0989C86.2483 24.0989 84.5912 24.8867 83.5861 26.4351C82.6354 27.9563 82.1464 30.6185 82.1464 34.4215V49.172H75.0564V18.6116Z" fill="#232323"/>
<path d="M132.456 19.9429V29.3147C130.853 27.3589 129.413 26.0006 128.136 25.2672C126.887 24.5066 125.42 24.1263 123.708 24.1263C121.046 24.1263 118.846 25.0499 117.08 26.9242C115.315 28.7714 114.445 31.1076 114.445 33.9327C114.445 36.7579 115.287 39.1484 116.999 40.9956C118.71 42.8428 120.911 43.7664 123.546 43.7664C125.23 43.7664 126.724 43.4133 128.028 42.6798C129.277 41.9735 130.744 40.5881 132.456 38.5508V47.8683C129.603 49.3623 126.724 50.0958 123.871 50.0958C119.145 50.0958 115.179 48.5746 112 45.5049C108.822 42.4353 107.219 38.6051 107.219 34.0414C107.219 29.4777 108.822 25.6475 112.055 22.4964C115.287 19.3453 119.226 17.7969 123.926 17.7969C126.941 17.7969 129.793 18.5303 132.456 19.9701V19.9429Z" fill="#232323"/>
<path d="M165.515 35.5623H143.62C143.81 38.0614 144.625 40.0716 146.065 41.5657C147.505 43.0326 149.352 43.766 151.607 43.766C153.372 43.766 154.812 43.3586 155.98 42.5165C157.121 41.6744 158.398 40.126 159.838 37.8713L165.787 41.1854C164.863 42.7609 163.885 44.092 162.88 45.2058C161.875 46.3195 160.761 47.2431 159.593 47.9766C158.425 48.71 157.148 49.2262 155.79 49.5521C154.432 49.8781 152.965 50.0411 151.362 50.0411C146.798 50.0411 143.131 48.5742 140.388 45.6404C137.617 42.6794 136.259 38.7677 136.259 33.9052C136.259 29.0427 137.59 25.1582 140.279 22.17C142.968 19.2091 146.554 17.7422 151.009 17.7422C155.464 17.7422 159.05 19.1819 161.685 22.0342C164.265 24.8865 165.569 28.8254 165.569 33.8509V35.5079L165.515 35.5623ZM158.289 29.7762C157.311 26.0003 154.921 24.1259 151.172 24.1259C150.303 24.1259 149.515 24.2617 148.754 24.5062C147.994 24.7779 147.315 25.1582 146.69 25.6471C146.065 26.1361 145.549 26.7337 145.114 27.4128C144.68 28.092 144.354 28.8797 144.109 29.7762H158.289Z" fill="#232323"/>
<path d="M171.627 18.6116H178.717V21.4368C181.189 18.9919 183.96 17.7695 187.057 17.7695C190.615 17.7695 193.386 18.8833 195.369 21.138C197.08 23.0395 197.95 26.1363 197.95 30.4555V49.172H190.86V32.1125C190.86 29.0972 190.452 27.0056 189.61 25.8646C188.795 24.6965 187.301 24.0989 185.155 24.0989C182.819 24.0989 181.162 24.8867 180.157 26.4351C179.206 27.9563 178.717 30.6185 178.717 34.4215V49.172H171.627V18.6116Z" fill="#232323"/>
<path d="M212.537 25.2148V49.1741H205.475V25.2148H202.459V18.6409H205.475V7.42188H212.537V18.6138H218.025V25.1876H212.537V25.2148Z" fill="#232323"/>
<path d="M220.143 5.89962C220.143 4.6772 220.605 3.59061 221.502 2.69418C222.398 1.79774 223.485 1.33594 224.734 1.33594C225.984 1.33594 227.097 1.79774 227.994 2.69418C228.89 3.56345 229.352 4.65004 229.352 5.92678C229.352 7.20353 228.89 8.29012 227.994 9.18656C227.125 10.083 226.038 10.5448 224.761 10.5448C223.485 10.5448 222.398 10.083 221.502 9.18656C220.605 8.29012 220.143 7.20353 220.143 5.89962ZM228.293 18.6127V49.1731H221.23V18.6127H228.293Z" fill="#232323"/>
<path d="M239.403 18.6133L247.308 35.7814L255.186 18.6133H263.118L247.254 51.2653L231.498 18.6133H239.403Z" fill="#232323"/>
<path d="M293.026 35.5623H271.132C271.322 38.0614 272.137 40.0716 273.577 41.5657C275.016 43.0326 276.863 43.766 279.118 43.766C280.884 43.766 282.324 43.3586 283.492 42.5165C284.633 41.6744 285.909 40.126 287.349 37.8713L293.298 41.1854C292.375 42.7609 291.397 44.092 290.392 45.2058C289.386 46.3195 288.273 47.2431 287.105 47.9766C285.936 48.71 284.66 49.2262 283.301 49.5521C281.943 49.8781 280.476 50.0411 278.874 50.0411C274.31 50.0411 270.643 48.5742 267.899 45.6404C265.128 42.6794 263.77 38.7677 263.77 33.9052C263.77 29.0427 265.101 25.1582 267.79 22.17C270.48 19.2091 274.065 17.7422 278.52 17.7422C282.976 17.7422 286.561 19.1819 289.196 22.0342C291.777 24.8865 293.081 28.8254 293.081 33.8509V35.5079L293.026 35.5623ZM285.773 29.7762C284.796 26.0003 282.405 24.1259 278.656 24.1259C277.787 24.1259 276.999 24.2617 276.239 24.5062C275.478 24.7779 274.799 25.1582 274.174 25.6471C273.549 26.1361 273.033 26.7337 272.599 27.4128C272.164 28.092 271.838 28.8797 271.593 29.7762H285.773Z" fill="#232323"/>
<path d="M0 48.9286V47.2444H6.81836L24.6656 22.117H26.703L8.88288 47.2444H15.4296V48.9286H0ZM27.6266 48.9286V47.2444H32.8422L7.06284 2.4225H2.25468V0.738281H27.9797V2.4225H22.2208L48.2446 47.2715H53.3244V48.9558H27.6266V48.9286ZM25.9695 24.6976L41.4263 2.4225H35.6402V0.738281H49.7659V2.4225H43.2735L28.034 24.7248H25.9152L25.9695 24.6976Z" fill="#232323"/>
<path d="M24.1767 2.28656L50.6351 47.4344V48.4395L45.9085 47.5431L25.5892 12.1474L20.8625 1.90625L24.1767 2.28656Z" fill="#232323"/>
<path d="M5.84058 1.90625L31.3483 48.5753L33.3857 48.0592L33.8475 45.0711L14.3975 9.15924L9.61648 1.90625H5.84058Z" fill="#232323"/>
</g>
<defs>
<clipPath id="clip0_632_10147">
<rect width="293.298" height="50.5265" fill="white" transform="translate(0 0.738281)"/>
</clipPath>
</defs>
</svg>
