<svg width="352" height="218" viewBox="0 0 352 218" fill="none" xmlns="http://www.w3.org/2000/svg">
<path d="M3.38161 185.023V209.629" stroke="#7E7E7E" stroke-width="0.962192" stroke-linecap="square"/>
<rect x="0.503906" y="196.559" width="5.75709" height="9.22719" rx="2.87855" fill="#7E7E7E"/>
<path d="M12.9763 151.965V216.555" stroke="black" stroke-width="0.962192" stroke-linecap="square"/>
<rect x="10.0986" y="158.117" width="5.75709" height="32.2952" rx="2.87855" fill="black"/>
<path d="M22.5708 184.258V204.25" stroke="#7E7E7E" stroke-width="0.962192" stroke-linecap="square"/>
<rect x="19.6931" y="196.555" width="5.75709" height="6.9204" rx="2.87855" fill="#7E7E7E"/>
<path d="M32.1643 135.051V175.035" stroke="#CFCFCF" stroke-width="0.962192" stroke-linecap="square"/>
<rect x="29.2866" y="138.902" width="5.75709" height="23.068" rx="2.87855" fill="#CFCFCF"/>
<path d="M41.7642 102.754V181.185" stroke="#CFCFCF" stroke-width="0.962192" stroke-linecap="square"/>
<rect x="38.8865" y="114.289" width="5.75709" height="59.9768" rx="2.87855" fill="#CFCFCF"/>
<path d="M51.3565 118.902V158.887" stroke="black" stroke-width="0.962192" stroke-linecap="square"/>
<rect x="48.4788" y="120.441" width="5.75709" height="21.5301" rx="2.87855" fill="black"/>
<path d="M60.95 118.902V145.046" stroke="#CFCFCF" stroke-width="0.962192" stroke-linecap="square"/>
<rect x="58.0723" y="125.824" width="5.75709" height="16.9165" rx="2.87855" fill="#CFCFCF"/>
<path d="M70.5496 102.754V155.041" stroke="#CFCFCF" stroke-width="0.962192" stroke-linecap="square"/>
<rect x="67.6719" y="115.828" width="5.75709" height="35.3709" rx="2.87855" fill="#CFCFCF"/>
<path d="M80.1404 135.051V207.33" stroke="#7E7E7E" stroke-width="0.962192" stroke-linecap="square"/>
<rect x="77.2612" y="163.508" width="5.75709" height="37.6777" rx="2.87855" fill="#7E7E7E"/>
<path d="M89.7361 118.902V189.644" stroke="#CFCFCF" stroke-width="0.962192" stroke-linecap="square"/>
<rect x="86.8584" y="127.363" width="5.75709" height="49.2117" rx="2.87855" fill="#CFCFCF"/>
<path d="M99.3284 128.887V168.871" stroke="#CFCFCF" stroke-width="0.962192" stroke-linecap="square"/>
<rect x="96.4507" y="138.113" width="5.75709" height="21.5301" rx="2.87855" fill="#CFCFCF"/>
<path d="M108.924 127.355V178.105" stroke="#7E7E7E" stroke-width="0.962192" stroke-linecap="square"/>
<rect x="106.046" y="134.277" width="5.75709" height="39.9845" rx="2.87855" fill="#7E7E7E"/>
<path d="M118.525 168.105V186.56" stroke="#7E7E7E" stroke-width="0.962192" stroke-linecap="square"/>
<rect x="115.647" y="175.793" width="5.75709" height="8.45826" rx="2.87855" fill="#7E7E7E"/>
<path d="M128.118 87.3828V182.73" stroke="#CFCFCF" stroke-width="0.962192" stroke-linecap="square"/>
<rect x="125.24" y="90.4531" width="5.75709" height="63.8214" rx="2.87855" fill="#CFCFCF"/>
<path d="M137.71 149.656V198.868" stroke="#7E7E7E" stroke-width="0.962192" stroke-linecap="square"/>
<rect x="134.832" y="157.344" width="5.75709" height="25.3748" rx="2.87855" fill="#7E7E7E"/>
<path d="M147.309 178.883V212.716" stroke="#7E7E7E" stroke-width="0.962192" stroke-linecap="square"/>
<rect x="144.432" y="195.797" width="5.75709" height="12.3029" rx="2.87855" fill="#7E7E7E"/>
<path d="M156.904 142.727V182.711" stroke="#CFCFCF" stroke-width="0.962192" stroke-linecap="square"/>
<rect x="154.026" y="151.953" width="5.75709" height="27.6816" rx="2.87855" fill="#CFCFCF"/>
<path d="M166.497 98.9062V166.572" stroke="#CFCFCF" stroke-width="0.962192" stroke-linecap="square"/>
<rect x="163.62" y="104.297" width="5.75709" height="31.5262" rx="2.87855" fill="#CFCFCF"/>
<path d="M176.091 118.902V160.425" stroke="#7E7E7E" stroke-width="0.962192" stroke-linecap="square"/>
<rect x="173.213" y="128.129" width="5.75709" height="26.9127" rx="2.87855" fill="#7E7E7E"/>
<path d="M185.69 129.664V166.573" stroke="#7E7E7E" stroke-width="0.962192" stroke-linecap="square"/>
<rect x="182.812" y="137.348" width="5.75709" height="9.99613" rx="2.87855" fill="#7E7E7E"/>
<path d="M195.285 101.988V158.12" stroke="#CFCFCF" stroke-width="0.962192" stroke-linecap="square"/>
<rect x="192.408" y="107.375" width="5.75709" height="37.6777" rx="2.87855" fill="#CFCFCF"/>
<path d="M204.878 96.6016V142.738" stroke="#CFCFCF" stroke-width="0.962192" stroke-linecap="square"/>
<rect x="202" y="104.289" width="5.75709" height="20.7612" rx="2.87855" fill="#CFCFCF"/>
<path d="M214.475 107.367V130.435" stroke="#CFCFCF" stroke-width="0.962192" stroke-linecap="square"/>
<rect x="211.597" y="109.676" width="5.75709" height="6.9204" rx="2.87855" fill="#CFCFCF"/>
<path d="M224.07 35.082V111.975" stroke="#CFCFCF" stroke-width="0.962192" stroke-linecap="square"/>
<rect x="221.192" y="47.3789" width="5.75709" height="50.7496" rx="2.87855" fill="#CFCFCF"/>
<path d="M233.661 50.457V107.358" stroke="#CFCFCF" stroke-width="0.962192" stroke-linecap="square"/>
<rect x="230.784" y="53.5312" width="5.75709" height="35.3709" rx="2.87855" fill="#CFCFCF"/>
<path d="M243.258 52.7812V118.909" stroke="#7E7E7E" stroke-width="0.962192" stroke-linecap="square"/>
<rect x="240.38" y="81.2305" width="5.75709" height="32.2952" rx="2.87855" fill="#7E7E7E"/>
<path d="M252.851 84.2891V135.039" stroke="#7E7E7E" stroke-width="0.962192" stroke-linecap="square"/>
<rect x="249.974" y="97.3633" width="5.75709" height="19.2233" rx="2.87855" fill="#7E7E7E"/>
<path d="M262.452 124.285V159.656" stroke="#7E7E7E" stroke-width="0.962192" stroke-linecap="square"/>
<rect x="259.575" y="127.355" width="5.75709" height="19.2233" rx="2.87855" fill="#7E7E7E"/>
<path d="M272.047 94.2852V155.031" stroke="black" stroke-width="0.962192" stroke-linecap="square"/>
<rect x="269.169" y="109.664" width="5.75709" height="30.7573" rx="2.87855" fill="black"/>
<path d="M281.637 37.3867V94.2878" stroke="#CFCFCF" stroke-width="0.962192" stroke-linecap="square"/>
<rect x="278.76" y="40.457" width="5.75709" height="35.3709" rx="2.87855" fill="#CFCFCF"/>
<path d="M291.231 24.3203V73.532" stroke="#CFCFCF" stroke-width="0.962192" stroke-linecap="square"/>
<rect x="288.353" y="32.7812" width="5.75709" height="19.9923" rx="2.87855" fill="#CFCFCF"/>
<path d="M300.829 1.25V65.8404" stroke="#CFCFCF" stroke-width="0.962192" stroke-linecap="square"/>
<rect x="297.952" y="11.2461" width="5.75709" height="44.5981" rx="2.87855" fill="#CFCFCF"/>
<path d="M310.426 30.4727V73.5329" stroke="#7E7E7E" stroke-width="0.962192" stroke-linecap="square"/>
<rect x="307.548" y="49.6953" width="5.75709" height="19.2233" rx="2.87855" fill="#7E7E7E"/>
<path d="M320.021 66.6094V125.048" stroke="#7E7E7E" stroke-width="0.962192" stroke-linecap="square"/>
<rect x="317.143" y="95.8242" width="5.75709" height="19.2233" rx="2.87855" fill="#7E7E7E"/>
<path d="M329.615 71.2305V120.442" stroke="#CFCFCF" stroke-width="0.962192" stroke-linecap="square"/>
<rect x="326.736" y="79.6914" width="5.75709" height="19.9923" rx="2.87855" fill="#CFCFCF"/>
<path d="M339.212 5.85937V70.4497" stroke="#CFCFCF" stroke-width="0.962192" stroke-linecap="square"/>
<rect x="336.334" y="16.6211" width="5.75709" height="50.7496" rx="2.87855" fill="#CFCFCF"/>
<path d="M348.807 28.9258V87.3647" stroke="#7E7E7E" stroke-width="0.962192" stroke-linecap="square"/>
<rect x="345.93" y="42" width="5.75709" height="19.2233" rx="2.87855" fill="#7E7E7E"/>
</svg>
