<svg width="24" height="25" viewBox="0 0 24 25" fill="none" xmlns="http://www.w3.org/2000/svg">
<path d="M12.4999 20.5H10.4999C6.74136 20.5 4.86207 20.5 3.6074 19.5091C3.40672 19.3506 3.22113 19.176 3.05274 18.9871C1.99994 17.8062 1.99994 16.0375 1.99994 12.5C1.99994 8.96252 1.99994 7.19377 3.05274 6.0129C3.22113 5.82403 3.40672 5.64935 3.6074 5.49087C4.86207 4.5 6.74136 4.5 10.4999 4.5H13.4999C17.2585 4.5 19.1378 4.5 20.3924 5.49087C20.5931 5.64935 20.7787 5.82403 20.9471 6.0129C21.8393 7.01358 21.9754 8.43642 21.9962 11" stroke="#232323" stroke-width="1.32308" stroke-linecap="round" stroke-linejoin="round"/>
<path d="M18.4999 20.5V13.5M14.9999 17H21.9999" stroke="#232323" stroke-width="1.32308" stroke-linecap="round"/>
<path d="M1.99994 9.5H21.9999" stroke="#232323" stroke-width="1.32308" stroke-linejoin="round"/>
</svg>
