<svg width="32" height="32" viewBox="0 0 32 32" fill="none" xmlns="http://www.w3.org/2000/svg">
<path d="M18.765 5.1819C19.7586 4.10541 20.2554 3.56717 20.7832 3.25321C22.057 2.49565 23.6255 2.47209 24.9206 3.19106C25.4572 3.48904 25.9692 4.01213 26.9934 5.05832C28.0175 6.1045 28.5296 6.6276 28.8212 7.17588C29.5251 8.4988 29.502 10.101 28.7604 11.4022C28.4531 11.9415 27.9262 12.449 26.8724 13.464L14.3342 25.5404C12.3372 27.4638 11.3387 28.4256 10.0908 28.9129C8.84285 29.4004 7.47096 29.3645 4.72717 29.2928L4.35386 29.283C3.51857 29.2612 3.10092 29.2502 2.85814 28.9746C2.61536 28.6992 2.6485 28.2737 2.7148 27.4229L2.7508 26.9609C2.93737 24.566 3.03065 23.3686 3.4983 22.2922C3.96594 21.2158 4.77261 20.342 6.38593 18.594L18.765 5.1819Z" stroke="#232323" stroke-width="1.5" stroke-linejoin="round"/>
<path d="M17.3333 5.33203L26.6666 14.6654" stroke="#232323" stroke-width="1.5" stroke-linejoin="round"/>
<path d="M18.6667 29.332H29.3334" stroke="#232323" stroke-width="1.5" stroke-linecap="round" stroke-linejoin="round"/>
</svg>
