<svg width="24" height="25" viewBox="0 0 24 25" fill="none" xmlns="http://www.w3.org/2000/svg">
<path d="M15 8C15 8 15.5 8 16 9C16 9 17.5882 6.5 19 6" stroke="#232323" stroke-width="1.5" stroke-linecap="round" stroke-linejoin="round"/>
<path d="M22 7.5C22 10.2614 19.7614 12.5 17 12.5C14.2386 12.5 12 10.2614 12 7.5C12 4.73858 14.2386 2.5 17 2.5C19.7614 2.5 22 4.73858 22 7.5Z" stroke="#232323" stroke-width="1.5" stroke-linecap="round"/>
<path d="M22.75 13.7455C22.7493 13.3312 22.4129 12.996 21.9987 12.9968C21.5845 12.9975 21.2493 13.3339 21.25 13.7481L22.75 13.7455ZM9.06582 7.2539C9.48003 7.25155 9.81391 6.91387 9.81157 6.49967C9.80922 6.08546 9.47154 5.75158 9.05734 5.75392L9.06582 7.2539ZM13.5 21.7514H10.5V23.2514H13.5V21.7514ZM10.5 21.7514C8.60311 21.7514 7.24353 21.7503 6.19895 21.6323C5.16816 21.5158 4.54359 21.2941 4.07229 20.9219L3.14263 22.0991C3.926 22.7178 4.86842 22.9915 6.03058 23.1228C7.17896 23.2525 8.63832 23.2514 10.5 23.2514V21.7514ZM1.25 14.5014C1.25 16.2503 1.24857 17.6331 1.38762 18.7236C1.52932 19.8347 1.82681 20.7404 2.49298 21.4876L3.61262 20.4894C3.22599 20.0557 2.99708 19.4866 2.87558 18.5338C2.75143 17.5603 2.75 16.29 2.75 14.5014H1.25ZM4.07229 20.9219C3.90545 20.7902 3.7517 20.6454 3.61262 20.4894L2.49298 21.4876C2.69068 21.7094 2.90811 21.9139 3.14263 22.0991L4.07229 20.9219ZM21.25 14.5014C21.25 16.29 21.2486 17.5603 21.1244 18.5338C21.0029 19.4866 20.774 20.0557 20.3874 20.4894L21.507 21.4876C22.1732 20.7404 22.4707 19.8347 22.6124 18.7236C22.7514 17.6331 22.75 16.2503 22.75 14.5014H21.25ZM13.5 23.2514C15.3617 23.2514 16.821 23.2525 17.9694 23.1228C19.1316 22.9915 20.074 22.7178 20.8574 22.0991L19.9277 20.9219C19.4564 21.2941 18.8318 21.5158 17.801 21.6323C16.7565 21.7503 15.3969 21.7514 13.5 21.7514V23.2514ZM20.3874 20.4894C20.2483 20.6454 20.0946 20.7902 19.9277 20.9219L20.8574 22.0991C21.0919 21.9139 21.3093 21.7094 21.507 21.4876L20.3874 20.4894ZM2.75 14.5014C2.75 12.7128 2.75143 11.4425 2.87558 10.469C2.99708 9.51617 3.22599 8.94704 3.61262 8.51338L2.49298 7.51518C1.82681 8.26239 1.52932 9.16807 1.38762 10.2792C1.24857 11.3697 1.25 12.7525 1.25 14.5014H2.75ZM3.14263 6.90366C2.90811 7.08887 2.69068 7.29343 2.49298 7.51518L3.61262 8.51338C3.7517 8.35738 3.90545 8.21259 4.07229 8.08084L3.14263 6.90366ZM22.75 14.5014C22.75 14.2422 22.7504 13.9885 22.75 13.7455L21.25 13.7481C21.2504 13.9895 21.25 14.2386 21.25 14.5014H22.75ZM9.05734 5.75392C7.64978 5.76189 6.50411 5.79431 5.56558 5.94242C4.61301 6.09276 3.81862 6.3698 3.14263 6.90366L4.07229 8.08084C4.47956 7.7592 5.00124 7.55005 5.79942 7.42409C6.61164 7.2959 7.65139 7.2619 9.06582 7.2539L9.05734 5.75392Z" fill="#232323"/>
<path d="M10 18.5H11.5" stroke="#232323" stroke-width="1.5" stroke-miterlimit="10" stroke-linecap="round" stroke-linejoin="round"/>
<path d="M14.5 18.5H18" stroke="#232323" stroke-width="1.5" stroke-miterlimit="10" stroke-linecap="round" stroke-linejoin="round"/>
<path d="M2.5 11.5H10" stroke="#232323" stroke-width="1.5" stroke-linecap="round" stroke-linejoin="round"/>
</svg>
